<mxfile host="app.diagrams.net" modified="2022-05-05T07:50:12.727Z" agent="5.0 (Windows NT 10.0; WOW64) AppleWebKit/537.36 (KHTML, like Gecko) Chrome/100.0.4896.60 Safari/537.36" etag="lFuH7We1zum18D4QkMmx" version="18.0.0" type="github" pages="4">
  <diagram name="鉴权" id="edf60f1a-56cd-e834-aa8a-f176f3a09ee4">
    <mxGraphModel dx="2222" dy="450" grid="1" gridSize="10" guides="1" tooltips="1" connect="1" arrows="1" fold="1" page="1" pageScale="1" pageWidth="1100" pageHeight="850" background="none" math="0" shadow="0">
      <root>
        <mxCell id="0" />
        <mxCell id="1" parent="0" />
        <mxCell id="60e70716793133e9-31" style="edgeStyle=orthogonalEdgeStyle;rounded=0;html=1;labelBackgroundColor=none;startSize=5;endArrow=classicThin;endFill=1;endSize=5;jettySize=auto;orthogonalLoop=1;strokeWidth=1;fontFamily=Verdana;fontSize=8;entryX=0.5;entryY=0;entryDx=0;entryDy=0;" parent="1" source="fS58xSXTJZ6TY58kK1jS-1" target="fS58xSXTJZ6TY58kK1jS-11" edge="1">
          <mxGeometry relative="1" as="geometry">
            <mxPoint x="190" y="270" as="sourcePoint" />
            <mxPoint x="280" y="354" as="targetPoint" />
            <Array as="points">
              <mxPoint x="155" y="280" />
              <mxPoint x="155" y="280" />
            </Array>
          </mxGeometry>
        </mxCell>
        <mxCell id="60e70716793133e9-4" value="客户端认证&lt;br&gt;&lt;span style=&quot;background-color: initial;&quot;&gt;通过clientId 和 clientSecret 访问鉴权，实现资源调用&lt;/span&gt;&lt;br&gt;&lt;div&gt;&lt;span style=&quot;font-size: 8px;&quot;&gt;事件订阅推荐客户端模式，无需保活。但调用API接口可能存在兼容问题。&lt;/span&gt;&lt;span style=&quot;background-color: initial;&quot;&gt;建议事件订阅使用客户端模式&lt;/span&gt;&lt;/div&gt;&lt;div&gt;&lt;br&gt;&lt;/div&gt;" style="rounded=0;whiteSpace=wrap;html=1;shadow=1;labelBackgroundColor=none;strokeWidth=1;fontFamily=Verdana;fontSize=8;align=center;" parent="1" vertex="1">
          <mxGeometry x="340" y="160" width="380" height="90" as="geometry" />
        </mxCell>
        <mxCell id="fS58xSXTJZ6TY58kK1jS-1" value="&lt;font style=&quot;font-size: 6px;&quot;&gt;密码认证&lt;br&gt;&lt;span style=&quot;color: rgb(57, 56, 56); font-family: &amp;quot;Microsoft Yahei&amp;quot;, &amp;quot;PingFang SC&amp;quot;, &amp;quot;Hiragino Sans GB&amp;quot;, tahoma, arial; text-align: start;&quot;&gt;通过ICC用户账号、用户密码、&lt;/span&gt;&lt;strong style=&quot;-webkit-print-color-adjust: exact; color: rgb(57, 56, 56); font-family: &amp;quot;Microsoft Yahei&amp;quot;, &amp;quot;PingFang SC&amp;quot;, &amp;quot;Hiragino Sans GB&amp;quot;, tahoma, arial; text-align: start;&quot;&gt;clientId&lt;/strong&gt;&lt;span style=&quot;color: rgb(57, 56, 56); font-family: &amp;quot;Microsoft Yahei&amp;quot;, &amp;quot;PingFang SC&amp;quot;, &amp;quot;Hiragino Sans GB&amp;quot;, tahoma, arial; text-align: start;&quot;&gt;&amp;nbsp;和&amp;nbsp;&lt;/span&gt;&lt;strong style=&quot;-webkit-print-color-adjust: exact; color: rgb(57, 56, 56); font-family: &amp;quot;Microsoft Yahei&amp;quot;, &amp;quot;PingFang SC&amp;quot;, &amp;quot;Hiragino Sans GB&amp;quot;, tahoma, arial; text-align: start;&quot;&gt;clientSecret&lt;/strong&gt;&lt;span style=&quot;color: rgb(57, 56, 56); font-family: &amp;quot;Microsoft Yahei&amp;quot;, &amp;quot;PingFang SC&amp;quot;, &amp;quot;Hiragino Sans GB&amp;quot;, tahoma, arial; text-align: start;&quot;&gt;&amp;nbsp;访问鉴权，实现资源调用&lt;/span&gt;&lt;/font&gt;" style="rounded=0;whiteSpace=wrap;html=1;shadow=1;labelBackgroundColor=none;strokeWidth=1;fontFamily=Verdana;fontSize=8;align=center;" vertex="1" parent="1">
          <mxGeometry x="55" y="160" width="200" height="70" as="geometry" />
        </mxCell>
        <mxCell id="fS58xSXTJZ6TY58kK1jS-31" style="edgeStyle=orthogonalEdgeStyle;rounded=0;orthogonalLoop=1;jettySize=auto;html=1;exitX=0.5;exitY=1;exitDx=0;exitDy=0;fontSize=6;" edge="1" parent="1" source="60e70716793133e9-4" target="fS58xSXTJZ6TY58kK1jS-32">
          <mxGeometry relative="1" as="geometry">
            <mxPoint x="440" y="380" as="targetPoint" />
            <mxPoint x="280" y="350" as="sourcePoint" />
          </mxGeometry>
        </mxCell>
        <mxCell id="fS58xSXTJZ6TY58kK1jS-12" style="edgeStyle=orthogonalEdgeStyle;rounded=0;orthogonalLoop=1;jettySize=auto;html=1;fontSize=6;" edge="1" parent="1" source="fS58xSXTJZ6TY58kK1jS-11" target="fS58xSXTJZ6TY58kK1jS-13">
          <mxGeometry relative="1" as="geometry">
            <mxPoint x="155" y="480" as="targetPoint" />
          </mxGeometry>
        </mxCell>
        <mxCell id="fS58xSXTJZ6TY58kK1jS-15" value="" style="edgeStyle=orthogonalEdgeStyle;rounded=0;orthogonalLoop=1;jettySize=auto;html=1;fontSize=6;" edge="1" parent="1" source="fS58xSXTJZ6TY58kK1jS-11" target="fS58xSXTJZ6TY58kK1jS-14">
          <mxGeometry relative="1" as="geometry" />
        </mxCell>
        <mxCell id="fS58xSXTJZ6TY58kK1jS-11" value="获取公钥" style="rounded=1;whiteSpace=wrap;html=1;fontSize=9;" vertex="1" parent="1">
          <mxGeometry x="100" y="390" width="110" height="40" as="geometry" />
        </mxCell>
        <mxCell id="fS58xSXTJZ6TY58kK1jS-17" value="" style="edgeStyle=orthogonalEdgeStyle;rounded=0;orthogonalLoop=1;jettySize=auto;html=1;fontSize=6;" edge="1" parent="1" source="fS58xSXTJZ6TY58kK1jS-13" target="fS58xSXTJZ6TY58kK1jS-18">
          <mxGeometry relative="1" as="geometry">
            <mxPoint x="155" y="530" as="targetPoint" />
          </mxGeometry>
        </mxCell>
        <mxCell id="fS58xSXTJZ6TY58kK1jS-13" value="RSA密码加密" style="rounded=1;whiteSpace=wrap;html=1;fontSize=6;" vertex="1" parent="1">
          <mxGeometry x="95" y="450" width="120" height="60" as="geometry" />
        </mxCell>
        <mxCell id="fS58xSXTJZ6TY58kK1jS-14" value="&lt;ul style=&quot;-webkit-print-color-adjust: exact; color: rgb(57, 56, 56); font-family: -apple-system, BlinkMacSystemFont, &amp;quot;Segoe UI&amp;quot;, Roboto, &amp;quot;Helvetica Neue&amp;quot;, Helvetica, &amp;quot;PingFang SC&amp;quot;, &amp;quot;Hiragino Sans GB&amp;quot;, &amp;quot;Microsoft YaHei&amp;quot;, SimSun, sans-serif; text-align: start;&quot;&gt;&lt;li style=&quot;-webkit-print-color-adjust: exact;&quot;&gt;&lt;strong style=&quot;-webkit-print-color-adjust: exact;&quot;&gt;&lt;font style=&quot;font-size: 9px;&quot;&gt;公钥只能使用一次，用后失效&lt;/font&gt;&lt;/strong&gt;&lt;/li&gt;&lt;/ul&gt;" style="shape=document;whiteSpace=wrap;html=1;boundedLbl=1;fontSize=9;rounded=1;" vertex="1" parent="1">
          <mxGeometry x="-110" y="375" width="135" height="70" as="geometry" />
        </mxCell>
        <mxCell id="fS58xSXTJZ6TY58kK1jS-20" value="" style="edgeStyle=orthogonalEdgeStyle;rounded=0;orthogonalLoop=1;jettySize=auto;html=1;fontSize=6;" edge="1" parent="1" source="fS58xSXTJZ6TY58kK1jS-18" target="fS58xSXTJZ6TY58kK1jS-19">
          <mxGeometry relative="1" as="geometry" />
        </mxCell>
        <mxCell id="fS58xSXTJZ6TY58kK1jS-18" value="获取token" style="rounded=1;whiteSpace=wrap;html=1;fontSize=6;" vertex="1" parent="1">
          <mxGeometry x="90" y="530" width="120" height="60" as="geometry" />
        </mxCell>
        <mxCell id="fS58xSXTJZ6TY58kK1jS-22" value="" style="edgeStyle=orthogonalEdgeStyle;rounded=0;orthogonalLoop=1;jettySize=auto;html=1;fontSize=6;" edge="1" parent="1" source="fS58xSXTJZ6TY58kK1jS-19" target="fS58xSXTJZ6TY58kK1jS-21">
          <mxGeometry relative="1" as="geometry" />
        </mxCell>
        <mxCell id="fS58xSXTJZ6TY58kK1jS-29" value="" style="edgeStyle=orthogonalEdgeStyle;rounded=0;orthogonalLoop=1;jettySize=auto;html=1;fontSize=8;" edge="1" parent="1" source="fS58xSXTJZ6TY58kK1jS-19" target="fS58xSXTJZ6TY58kK1jS-28">
          <mxGeometry relative="1" as="geometry" />
        </mxCell>
        <mxCell id="fS58xSXTJZ6TY58kK1jS-19" value="用户保活" style="whiteSpace=wrap;html=1;fontSize=6;rounded=1;" vertex="1" parent="1">
          <mxGeometry x="90" y="610" width="120" height="60" as="geometry" />
        </mxCell>
        <mxCell id="fS58xSXTJZ6TY58kK1jS-21" value="刷新token&lt;br&gt;" style="whiteSpace=wrap;html=1;fontSize=6;rounded=1;" vertex="1" parent="1">
          <mxGeometry x="90" y="690" width="120" height="60" as="geometry" />
        </mxCell>
        <mxCell id="fS58xSXTJZ6TY58kK1jS-23" value="" style="endArrow=none;html=1;rounded=0;fontSize=6;entryX=-0.025;entryY=0.4;entryDx=0;entryDy=0;entryPerimeter=0;exitX=0;exitY=0.25;exitDx=0;exitDy=0;" edge="1" parent="1" source="fS58xSXTJZ6TY58kK1jS-19" target="fS58xSXTJZ6TY58kK1jS-21">
          <mxGeometry width="50" height="50" relative="1" as="geometry">
            <mxPoint x="-10" y="640" as="sourcePoint" />
            <mxPoint x="50" y="610" as="targetPoint" />
            <Array as="points">
              <mxPoint x="-20" y="670" />
            </Array>
          </mxGeometry>
        </mxCell>
        <mxCell id="fS58xSXTJZ6TY58kK1jS-26" value="&lt;font style=&quot;font-size: 8px;&quot;&gt;&lt;br&gt;&lt;/font&gt;&lt;ul style=&quot;-webkit-print-color-adjust: exact; color: rgb(57, 56, 56); font-family: -apple-system, BlinkMacSystemFont, &amp;quot;Segoe UI&amp;quot;, Roboto, &amp;quot;Helvetica Neue&amp;quot;, Helvetica, &amp;quot;PingFang SC&amp;quot;, &amp;quot;Hiragino Sans GB&amp;quot;, &amp;quot;Microsoft YaHei&amp;quot;, SimSun, sans-serif; text-align: start;&quot;&gt;&lt;li style=&quot;-webkit-print-color-adjust: exact;&quot;&gt;&lt;font style=&quot;font-size: 8px;&quot;&gt;用户保活接口必须30分钟内做保活,保证终端用户在线&lt;/font&gt;&lt;/li&gt;&lt;li style=&quot;-webkit-print-color-adjust: exact;&quot;&gt;&lt;font style=&quot;font-size: 8px;&quot;&gt;refresh_token有效期为30分钟，30分钟内需调刷新token保证refresh_token有效&lt;/font&gt;&lt;/li&gt;&lt;li style=&quot;-webkit-print-color-adjust: exact;&quot;&gt;&lt;font style=&quot;font-size: 8px;&quot;&gt;建议在3~4分钟分钟内调保活和刷新token接口&lt;/font&gt;&lt;/li&gt;&lt;/ul&gt;" style="rounded=0;whiteSpace=wrap;html=1;fontSize=6;" vertex="1" parent="1">
          <mxGeometry x="-250" y="620" width="290" height="90" as="geometry" />
        </mxCell>
        <mxCell id="fS58xSXTJZ6TY58kK1jS-28" value="&lt;div style=&quot;-webkit-print-color-adjust: exact; padding: 20px 0px 15px; margin-bottom: 15px; font-weight: bold; border-bottom: 1px solid rgb(223, 223, 225); color: rgb(57, 56, 56); font-family: -apple-system, BlinkMacSystemFont, &amp;quot;Segoe UI&amp;quot;, Roboto, &amp;quot;Helvetica Neue&amp;quot;, Helvetica, &amp;quot;PingFang SC&amp;quot;, &amp;quot;Hiragino Sans GB&amp;quot;, &amp;quot;Microsoft YaHei&amp;quot;, SimSun, sans-serif; text-align: start;&quot; id=&quot;终端类型&quot; class=&quot;segment&quot;&gt;&lt;font style=&quot;font-size: 6px;&quot;&gt;终端类型 代表对接端的所属类型&lt;/font&gt;&lt;/div&gt;&lt;table style=&quot;-webkit-print-color-adjust: exact; margin: 10px 0px 15px; border-collapse: collapse; color: rgb(57, 56, 56); font-family: -apple-system, BlinkMacSystemFont, &amp;quot;Segoe UI&amp;quot;, Roboto, &amp;quot;Helvetica Neue&amp;quot;, Helvetica, &amp;quot;PingFang SC&amp;quot;, &amp;quot;Hiragino Sans GB&amp;quot;, &amp;quot;Microsoft YaHei&amp;quot;, SimSun, sans-serif; font-size: 14px; text-align: start;&quot;&gt;&lt;thead style=&quot;-webkit-print-color-adjust: exact;&quot;&gt;&lt;tr style=&quot;-webkit-print-color-adjust: exact;&quot;&gt;&lt;th style=&quot;-webkit-print-color-adjust: exact; border: 1px solid rgb(221, 221, 221); padding: 5px 10px;&quot; align=&quot;center&quot;&gt;编码&lt;/th&gt;&lt;th style=&quot;-webkit-print-color-adjust: exact; border: 1px solid rgb(221, 221, 221); padding: 5px 10px;&quot;&gt;类型名称名称&lt;/th&gt;&lt;th style=&quot;-webkit-print-color-adjust: exact; border: 1px solid rgb(221, 221, 221); padding: 5px 10px;&quot;&gt;备注&lt;/th&gt;&lt;/tr&gt;&lt;/thead&gt;&lt;tbody style=&quot;-webkit-print-color-adjust: exact;&quot;&gt;&lt;tr style=&quot;-webkit-print-color-adjust: exact;&quot;&gt;&lt;td style=&quot;-webkit-print-color-adjust: exact; border: 1px solid rgb(221, 221, 221); padding: 3px 10px;&quot; align=&quot;center&quot;&gt;0&lt;/td&gt;&lt;td style=&quot;-webkit-print-color-adjust: exact; border: 1px solid rgb(221, 221, 221); padding: 3px 10px;&quot;&gt;未知终端&lt;/td&gt;&lt;td style=&quot;-webkit-print-color-adjust: exact; border: 1px solid rgb(221, 221, 221); padding: 3px 10px;&quot;&gt;-&lt;/td&gt;&lt;/tr&gt;&lt;tr style=&quot;-webkit-print-color-adjust: exact;&quot;&gt;&lt;td style=&quot;-webkit-print-color-adjust: exact; border: 1px solid rgb(221, 221, 221); padding: 3px 10px;&quot; align=&quot;center&quot;&gt;1&lt;/td&gt;&lt;td style=&quot;-webkit-print-color-adjust: exact; border: 1px solid rgb(221, 221, 221); padding: 3px 10px;&quot;&gt;浏览器端&lt;/td&gt;&lt;td style=&quot;-webkit-print-color-adjust: exact; border: 1px solid rgb(221, 221, 221); padding: 3px 10px;&quot;&gt;-&lt;/td&gt;&lt;/tr&gt;&lt;tr style=&quot;-webkit-print-color-adjust: exact;&quot;&gt;&lt;td style=&quot;-webkit-print-color-adjust: exact; border: 1px solid rgb(221, 221, 221); padding: 3px 10px;&quot; align=&quot;center&quot;&gt;2&lt;/td&gt;&lt;td style=&quot;-webkit-print-color-adjust: exact; border: 1px solid rgb(221, 221, 221); padding: 3px 10px;&quot;&gt;PC客户端&lt;/td&gt;&lt;td style=&quot;-webkit-print-color-adjust: exact; border: 1px solid rgb(221, 221, 221); padding: 3px 10px;&quot;&gt;-&lt;/td&gt;&lt;/tr&gt;&lt;tr style=&quot;-webkit-print-color-adjust: exact;&quot;&gt;&lt;td style=&quot;-webkit-print-color-adjust: exact; border: 1px solid rgb(221, 221, 221); padding: 3px 10px;&quot; align=&quot;center&quot;&gt;4&lt;/td&gt;&lt;td style=&quot;-webkit-print-color-adjust: exact; border: 1px solid rgb(221, 221, 221); padding: 3px 10px;&quot;&gt;收费客户端&lt;/td&gt;&lt;td style=&quot;-webkit-print-color-adjust: exact; border: 1px solid rgb(221, 221, 221); padding: 3px 10px;&quot;&gt;-&lt;/td&gt;&lt;/tr&gt;&lt;tr style=&quot;-webkit-print-color-adjust: exact;&quot;&gt;&lt;td style=&quot;-webkit-print-color-adjust: exact; border: 1px solid rgb(221, 221, 221); padding: 3px 10px;&quot; align=&quot;center&quot;&gt;5&lt;/td&gt;&lt;td style=&quot;-webkit-print-color-adjust: exact; border: 1px solid rgb(221, 221, 221); padding: 3px 10px;&quot;&gt;访客客户端&lt;/td&gt;&lt;td style=&quot;-webkit-print-color-adjust: exact; border: 1px solid rgb(221, 221, 221); padding: 3px 10px;&quot;&gt;-&lt;/td&gt;&lt;/tr&gt;&lt;tr style=&quot;-webkit-print-color-adjust: exact;&quot;&gt;&lt;td style=&quot;-webkit-print-color-adjust: exact; border: 1px solid rgb(221, 221, 221); padding: 3px 10px;&quot; align=&quot;center&quot;&gt;6&lt;/td&gt;&lt;td style=&quot;-webkit-print-color-adjust: exact; border: 1px solid rgb(221, 221, 221); padding: 3px 10px;&quot;&gt;安卓&lt;/td&gt;&lt;td style=&quot;-webkit-print-color-adjust: exact; border: 1px solid rgb(221, 221, 221); padding: 3px 10px;&quot;&gt;-&lt;/td&gt;&lt;/tr&gt;&lt;tr style=&quot;-webkit-print-color-adjust: exact;&quot;&gt;&lt;td style=&quot;-webkit-print-color-adjust: exact; border: 1px solid rgb(221, 221, 221); padding: 3px 10px;&quot; align=&quot;center&quot;&gt;7&lt;/td&gt;&lt;td style=&quot;-webkit-print-color-adjust: exact; border: 1px solid rgb(221, 221, 221); padding: 3px 10px;&quot;&gt;苹果&lt;/td&gt;&lt;td style=&quot;-webkit-print-color-adjust: exact; border: 1px solid rgb(221, 221, 221); padding: 3px 10px;&quot;&gt;-&lt;/td&gt;&lt;/tr&gt;&lt;/tbody&gt;&lt;/table&gt;" style="shape=document;whiteSpace=wrap;html=1;boundedLbl=1;fontSize=6;rounded=1;" vertex="1" parent="1">
          <mxGeometry x="530" y="465" width="260" height="350" as="geometry" />
        </mxCell>
        <mxCell id="fS58xSXTJZ6TY58kK1jS-32" value="获取token；&lt;br&gt;失效后重新获取" style="rounded=1;whiteSpace=wrap;html=1;fontSize=6;" vertex="1" parent="1">
          <mxGeometry x="470" y="385" width="120" height="60" as="geometry" />
        </mxCell>
      </root>
    </mxGraphModel>
  </diagram>
  <diagram id="YoConuhGA2rgcyjxSGAr" name="基础资源">
    <mxGraphModel dx="1122" dy="1619" grid="1" gridSize="10" guides="1" tooltips="1" connect="1" arrows="1" fold="1" page="1" pageScale="1" pageWidth="827" pageHeight="1169" math="0" shadow="0">
      <root>
        <mxCell id="0" />
        <mxCell id="1" parent="0" />
        <mxCell id="RezDgbksQ6lx2EMex9-9-2" style="edgeStyle=orthogonalEdgeStyle;rounded=0;orthogonalLoop=1;jettySize=auto;html=1;fontSize=8;" edge="1" parent="1" source="RezDgbksQ6lx2EMex9-9-1" target="RezDgbksQ6lx2EMex9-9-3">
          <mxGeometry relative="1" as="geometry">
            <mxPoint x="240" y="180" as="targetPoint" />
          </mxGeometry>
        </mxCell>
        <mxCell id="RezDgbksQ6lx2EMex9-9-6" style="edgeStyle=orthogonalEdgeStyle;rounded=0;orthogonalLoop=1;jettySize=auto;html=1;exitX=1;exitY=0.5;exitDx=0;exitDy=0;fontSize=8;" edge="1" parent="1" source="RezDgbksQ6lx2EMex9-9-1" target="RezDgbksQ6lx2EMex9-9-5">
          <mxGeometry relative="1" as="geometry" />
        </mxCell>
        <mxCell id="RezDgbksQ6lx2EMex9-9-1" value="获取设备列表" style="rounded=1;whiteSpace=wrap;html=1;fontSize=8;" vertex="1" parent="1">
          <mxGeometry x="250" y="113.25" width="120" height="50" as="geometry" />
        </mxCell>
        <mxCell id="RezDgbksQ6lx2EMex9-9-3" value="获取设备详情" style="rounded=1;whiteSpace=wrap;html=1;fontSize=8;" vertex="1" parent="1">
          <mxGeometry x="250" y="230" width="120" height="60" as="geometry" />
        </mxCell>
        <mxCell id="RezDgbksQ6lx2EMex9-9-5" value="" style="shape=image;verticalLabelPosition=bottom;labelBackgroundColor=default;verticalAlign=top;aspect=fixed;imageAspect=0;image=data:image/png,iVBORw0KGgoAAAANSUhEUgAAAlgAAAGmCAYAAACgFvooAAAAAXNSR0IArs4c6QAAAARnQU1BAACxjwv8YQUAAAAJcEhZcwAADsMAAA7DAcdvqGQAAF/TSURBVHhe7b07jx7Hte/NTOFO9hcZQZSH8EewT6JXznZkCFZkkUMChqyLgwMYCt6AIw6p1xYMWYo2nOxNcTiBnCjwkSOboqghduCjgMCBLiYp60LriNuXfmt1VXVd+/ZUPc8Me34/YEFP36qrVq1a9e/qHupUAwAAAABVQWABAAAAVAaBBQAAAFAZBBYAAABAZRBYAAAAAJVBYAEAAABUBoEFAAAAUBkEFgAAAEBlEFgAAAAAlUFgAQAAAFQGgQUAAABQGQQWAAAAQGUQWAAAAACVOfXgwYMGwzAMwzAMq2envv322wbDMAzDMAyrZ6f+9re/NRiGYRiGYVg9O/WPf/yjwTAMwzAMw+rZqX/+858NhmEYhmEYVs/4K0IAAACAyiCwAAAAACqDwAIAAACoDAILAAAAoDIILAAAAIDKILAAAAAAKoPAAgAAAKgMAgsAAACgMggsAAAAgMogsAAAAAAqg8ACAAAAqMyRC6yPPvoIwzAMwzBsbXYUHAuBBVCLpcUT4wMfAEAZCCyACiCwlgc+AIASEFgAFUBgLQ98AAAlILAAKoDAWh74AABKQGABVACBtTzwAQCUgMACqAACa3ngAwAoAYEFUAEE1vLABwBQAgILoAIIrOWBDwCgBAQWQAUQWMsDHwBACQgsgAogsJYHPgCAEhBYABVAYC0PfAAAJSCwACqAwFoe+AAASkBgLZp7zbvPPd6c2d5u7ZXr+83LT5xuTl05NMcdD6+e1fs/vdae89TB/aa5sds8duFa87E5LmU8f0ufn8OeY685SVSJJ+XvJ7dfbd4zmy2qP146fa55467ZFtS+nZ23nY9Nn0nf3Nndara3d8LzV6D++Dhs3tracvFj6uzHosRPG3cGG085kxj77aXvGH993sZ57bhDYJ0sZOz48efnP42O4SB/qnPi2JQy+mI3Gd+waBBYi8QJK3+y/dO1nXZSs4PdTx52Yv7NB9fbc54+OGzL0NfrCWwoOQxNhtaWnFzK40knb+sr2zfSL7LtJ3W7z04G1vfHWmB9ercVRF1bIoFl25QTmHKebms4wck1CCyogieUdHy5HNqJLnNOML7MvvYcL1b9ManR5SGwThYIrMURTtRD9i/n95o//NlcppLD+Z1LzeFNnSSswGoThEkc8fU6ebhE5JKJj6tPl6gWSL140v78+fV7zYP3X239lgoH7VNJ9L++e3u0v/P9Msy6xocVRX/8sxbyObEVgMCCjXHYvLl1UeXE+yaOdLxJXH3S3G9jLHl4QWDBAAishWMH+rC46RdlkhD29y94icWf5FwCahOSSjDB6yxPmK0yyT9KrBRPJjn/9FYueWvfJgndIP0qIvjh1YuBf4/jCpaNwamm669FU+64mMTl3t53EViwFsZitsunCCwYAIG1KPqFUp8FA94kCzEnyFyZbbIIVhR83EqWbycloawST04MaYHghJHzZernDJ/e7YTFcRRYAV6MxZYTSGF7fHHPChbUwuU4G2upQDL4gsrb9s0XWLEhsE4WCKyFIpOPDOh40rEDP34dY/c/e3mvW3WKrU0qJqH0rUj5iaXvnCUyP578J9pQYNm+032kz+v6y1sVlL6V7+qsv/tsFeFRdXx4de4mGLPPxaGb5Lr6mnNc/UOB5dA+WqWdQyCwThI6hlYVWO229/CZXu+PdzgpILAWh5uousFskkC3EmC2/clOXu3ZD9zDCeyw+eU5/XG87JfEkSYJnTykzCFzKxHLY3Y8BQLDJfdLexdaX8UiI/Sd7mNfULiVHi3WShP52sdH0P4ePr3Vxl7cbuufT5rw+7Nu0qsEAuskkRdYfYbAgikgsJaEGeB+IhDre7K3k/K//5cWVvF1YnYCtOde2DnjJsXofv3JI0xeS2R2PJnErBNwKFATP5pzXT/GAktv6+t8gaV/r7KSWHN82BW5OdZbZxNzfTFdEwTWSSKXo9y4sn+UkcTdiMCKrT9HwhJBYJ0I3JN/7yD3E4XCJgi7bY/nRZI/wedAYPUzJK60X+1fdPYJLCtgdF/p8qSc35sVnsFVoh7WOj4mC/N54qyL1UogsE4SLkfJKrKOJTfOPv9M/xuC9nf3xzwZgWXHaxjXblz2xTosDwTWAomfnqYMan8ie+GWnpiD67xJMXmKQ2CtFk+R0Ej8Y473+Vv223/KwRcXfv+v6vP1jQ9dd1tnW9e0jT30+qQ+CKyThHvQ6caMEU/tA4oXd1ZstWPOnOOb/Y41jFEE1kkEgXWSiJJBvLIRC7Nu0jbJRc4PV0ssbtIcMgSWh5+8FeLXxD/RORo3EYitS2isY3z4Ij54BWjaOSk+EFiwFqKHQBNnnSDy4s4+1LQxbGLX5UOXC8PX3O6haN1xC8cHBNbSiESUb7Gg6v683ySP4Bxvn5ifLESIhZOhTh6sYBUQ+dta4lN1nvu3xkKx1WerPDXXHB9WWI31vy/w7b8NZrenWhLjBSCwThYSp75oisWQ/4AwKJTUGO3+V1ZRPg5FFywdBBZABZYWT4wPfAAAZSCwACqAwFoe+AAASkBgAVQAgbU88AEAlIDAAqgAAmt54AMAKAGBBVABBNbywAcAUAICC6ACCKzlgQ8AoAQEFkAFEFjLAx8AQAkILIAKILCWBz4AgBIQWAAVQGAtD3wAACUgsAAqgMBaHvgAAEpAYAFUAIG1PPABAJRwogUWhmEYhmHYuuwoYAULFsXS4onxgQ8AoAwEFkAFEFjLAx8AQAkILIAKILCWBz4AgBIQWAAVQGAtD3wAACUgsAAqgMBaHvgAAEpAYAFUAIG1PPABAJSAwAKoAAJreeADACgBgQVQAQTW8sAHAFACAgugAgis5YEPAKAEBBZABRBYywMfAEAJCCyACiCwlkcNH9zZ3WqeOrhvtoZ5ePVs9lwp4/lbZsMg+85sb8+yuAwAWC8IrEcASabb2zvNG3fNjo7D5s2ts5n9sGlOtMD69Frz0ulzi4vD2X16Y7c5deXQbGhSgTU0Zu817z73eHC+iK64zH7IBwDHCQTWI4Ak6fM75zOJloR6XJgbT+nEe7xY5/iYJxqOjlV8IP365ParzXvedtfPSoi+/MRpr9+1oMqtNg1Zr++UwHvswrXmY7MJAEcLAusRQJL0Dw6uN29txa8KEFjHBQTWdJYssAS/fa6fZaxe7IRXFYxgy4kw33zBBwCbA4E1Cf2k+dNb94MnzljsiACyx+InSUm69pgk32SCVU+f9nj8OrA7V50TJstQYKUTl663rac9LuXJfWxZft2O86R/nJkeT+GqRdfXZvXht5e+0+6XPhvrz5aBuClh3vjw41DX8YVbt7vx4NfLxp61cAwdL+b6wB//Y+b6NX9dHBeSS5J4UALrxdO7w+JpyjkAsBYQWJPQk0YwgcXfnahE6CYLnTR9YRMILjMpdmJGbQfCyUuqgi/G5LefnOcKLLmv3baTXW89YDJzB5Lfpy0mJnzBMSqwRuKmhFKB5ddL2urXK23X8WRdyTFsfziGNd4+r08Tv2XEUxJXCCyAIwOBNYloYjMkyczDHRu/Ni1HrnFJNzzuJ+T5Ais4ngiqXLKHKdQQWLE4GuvPsbgpoVRgBfEeTfJpu44nmxJYNVewkphAYAEcGQisSWQmDYUkPJfM9Dl+ktTH8qLFJcL0Omt9E6ncV5LuJ83tMoGlku/OztvepI7AWpXNC6zxuCkBgTW/T6Vduf7ImWt/bsx5+1YQWEO+B4DNgcCaRGbSUMQiyT/ujoWvCzX6fDvBJkkxIpmMzfXy4TsC63iweYE1HjclILDWlxzD9ldcwVLb8tH7kO8BYHMgsCahJ41gAlSJz71ei4WJTpq+gIqvlSTaTbBBWSmpwFKYZBp8FxaVIwlZ7oPAWj/rEFhj/TkWNyUgsDYnsNIx5+3z4mLYbzrnPH1w2Ppf4uRR8DHAkkFgTUJPGq9c3+/+LDoQNgo7+YnJpLe3911vAtXX2+OS+OIJ1r9ezJ9sswJLIdfE9ZBzbRk22SKw1s/sgRQL5JzAUgz1pzAUNyWsU2BZMSD1Dc47Zszygeo/vx/GbLLA8kjGb0u/L21s1IoJAJgHAmsSmUmjiNrlwVFzVANpXSytPauwLh+EQskXU04suZXJ8OFM5wy3b9IKphJ/8YMYAKwfBNYk6goiSbDrerUDRwMCa3ngAwAoAYE1iTKBFb/GQVwtDwTW8sAHAFACAgugAgis5YEPAKAEBBZABRBYywMfAEAJCCyACiCwlgc+AIASEFgAFUBgLQ98AAAlILAAKoDAWh74AABKQGABVACBtTzwAQCUgMACqAACa3ngAwAo4UQLLAzDMAzDsHXZUcAKFiyKpcUT4wMfAEAZCCyACiCwlgc+AIASEFgAFUBgLQ98AAAlILAAKoDAWh74AABKQGABVACBtTzwAQCUgMACqAACa3ngAwAoAYEFUAEE1vLABwBQAgILoAIIrOWBDwCgBAQWQAUQWMsDHwBACQgsgAogsJYHPgCAEhBYABVAYC2PlXxwY7fZ3t5p3rhrtke4s7vVnNnenmXP35IrD5tfnHu7+bgtpWkeXj2bPdfaqSuH5kzFp9eal584nT3Pt6cO7psLFKpdtgy5lz52r3n3ubO6rarMnR1XHwBAYD0iSCJ7vEt8fgKXBB0kTzgSTrTAUpPrS6fPTRYVjwrz+/SweWtrumDSQinHYfPmlhEuA4jQeezCtVFRI+fNzRFORDnsPvnv0weHTlwJSoDF5wOcdBBYxx6dtINkrCa0f//A/IZjwdx4EmF8nCekdY6PVSb8o2CeD/Q4rdIuJVamCCdB4qhfqGlSf08Tgn589q202Ye93HEe/OCkg8A67igx9eLp3eY9swnHEwTWdJYnsPQKc9ufShzFQiO2pO0TX9k9uf3qSnlgFX/LNbn4lP1Sl+BYnKO814kAJxkE1iR0Av3prfvBq7rwyTF8KoyfQG1iEpPkk0ywXmIOv+HIrGB5+MnTv4c1l+jC14wkwLrMnYxtP3R9bVYtfnvpO+1+6W+/bzX62iAWeuOmjHnjw3+lpev4wq3b3XiIX2nb+oqNrb4cJaskx7DPMq/6cuJjykNUcI7LNX6e6VtlErP3HDqnz/S1ul9F5O3vX2j3W8F3Z/dsc37nUld/8cFxfngA2BQIrEno5BJMYCrhBd+dqMTpJotQFEnCCQSXmRS7JKS2g6dTtR2cb55wc0+w6SRsCBKyrr9LepmJGoqYO5D6BLbfJ6MCayxuCigVWH69pK1+vXpj9pgxPzlG/fPp3ebzz/YD8ZRte0ZgJfGROUf2+R+WyzW5MT3F38n9AsL8IeW1v03MSt/+6dqOuTe5BcCCwJpEPmkMJSV3bPzatBy5JvORq0lofrLMJ8/onrnkrMp6FCa5R4UaAisWR2nfhv06OW5WoFRgBfEexd+UCf84MN0Hus0yNudY54M1C6yYnP/l2jj+cuWlMWew+SRXT4ATCgJrEplJQ9E9ybWkSVYfy/9FkEtU/ck5nyz1+fa+fckySIJGmMVWa7UDjkJgzY2beSCwVkiOsbjIiI0wZxgy5yXiJidc1L5VBJYg58arjC52dB9KH93/7F63HceZmOtHHQMXds48En0LsAkQWJPITBoKN0mmx92x3DdU+nybaOckRsGfoJLJKjNRx4kY6rN5gTU/buaAwFohOdpVHMund5sH778aCJlJAkttyycBQz5sicb1UDxkfa7q+4OD66rvLjZ7e99tf9tvu5I6Jg+KaT/LPXKfMQCcVBBYk9DJJJgAVXJyySROPlpU+QIqvjZIYkFZESqJ/vy6PEVaQnEWJE51bv7fIwqvgfqsQ2DFcSF9LXHTTWpDcVMIAmt+n9r+mWL9f5Cgc4f+d6b0qlGvr4zA+qS53ezu3RoUWEm8mX6y9eiO9+WQGx80v1f3sQJMLChPXWf/EpI8A6BBYE1CJ6NXru93SSROkH5ylUlPnghdotHX2+OSMOOEFydnN9m6vxiyFl+nE3B4D2tD5fQlY5jP7IFkJqQujnICSyFxYvvLTrrxqoHfp7kyVmGdAsuPxeMcg+tIjtJfeQHS7xPbx0nfmhiyIjsVURa/T1ye8O8TXqvr0nc/idlLe/ovCaUMWz9dnr72URDQAOsGgTWJzKRRRO3y4Kg5qoG0LpbWnlWo4wMnaMTCFUd3bNJKpBLh/oOde7gyqOP2PrH5D2Fd3vFWneIHxhZT3qkr77XX5eoowqxvPyILTjoIrEnUFUSSGCclVHhkQGAtD3wAACUgsCZRJrDsEro1xNXyQGAtD3wAACUgsAAqgMBaHvgAAEpAYAFUAIG1PPABAJSAwAKoAAJreeADACgBgQVQAQTW8sAHAFACAgugAgis5YEPAKAEBBZABRBYywMfAEAJCCyACiCwlgc+AIASTrTAwjAMwzAMW5cdBaxgwaJYWjwxPvABAJSBwAKoAAJreeADACgBgQVQAQTW8sAHAFACAgugAgis5YEPAKAEBBZABRBYywMfAEAJCCyACiCwlgc+AIASEFgAFUBgLQ98AAAlILAAKoDAWh74AABKQGABVACBtTzwAQCUgMACqAACa3ngAwAoAYEFUAEE1vKY64M7u1vNqSuHZks4bN7a2mrObG8H9tTBfXM85OHVs82T268275ntOci129s7zRt3zY4OV4fnb5ldN3aTOvVZXB9pY1/9h/B9I3XN3UvssQvXmo/bs4R7zbvPPe7qbfn0WvPyE6fT/Ypc2aeuXM72g1hahvaX3b9qn0h7V+1LWA4IrKVgko5NHPlkO51VE+lJZX486clD+mrMz5Lkw4l7/SCwVvNBKLIOmze3Lk4TKBNET0582GP+PX0xkc0D6l7T4imqv8oxOztvuzpEOce3oI3qvBdP73blSDxnfRCX79VzSJSJJWJmQhvv7J5NfDN2H2tD+VX6WPrqT9d2JvoZlgoCawFIUkgGvEpWP79+z2zMB4E1j7nxNEc0zTm3FgisCj5Qk3woivLjSvbJ+L2wcyY5X8iO777VnVYUpcIhYIKYs+YLFydItIh75fp+IJwscRu769R9pbz9/QsTBJa0z4m74TGQF7KBbxLBlV4j5+TyaCD6RojbfhRjF44PCKxHHZO04iRXSm4igH7mxtMc/yKwjoYyH2gREvdxKj70aoe/aiPCRvpbjtnfKWUCK1fmYJypa2y9u/OilSlL0MbuOqmvrpdcH/ulxRMzck7bNrXvpdPnmkt7FwLhF1uQA3P1itscCye1fX7nfO+KXGxp/cNXiwHq3jnhDMsHgTWZcEk+eNKJB5BJCi7JuaRnk5NNnrnBKufYY0HiMPf57aXvtMdkMMcJO89A3Q3+Pe09gnLVvfuu99tyUhPJ9Hjq64vw1Y7vRxszln5/h2WMx0U/c8eHHz9ibqLRsX9tf6/d37YjE8exX7q4z02WyfhaD6v0qa735+121v/eOAomfIPft9by/Rj6S0x8+klze4bACuMlZ7Yf/Xr5fTP8ijCso22HxEq2Tao8ET2fNPeT6+IxMITUNT43vme4LfW82Pw+5ztTp6GcFsd+n+XyLiwbBNYkdKIIBq1KUk78hE+NdsB1A9gbpPZYNwGpcvyBJ8d7J1eTnN3kpevltnOM1T29p71PV//ofNnuzvd/K75+/5Yr5wQxdyDJJOAnfPGj68fwaTiOgby/4yfoCSsZA8wdH+9ccpNQGE+6XnH8hXGsUGPEvdLWMav9k8Z44I81Mjs5qjbkVnT6SQVO4BODtNc/R7c98ksnTm73iiY/hvTvNG/5fpUYDesj9/Riqqe9SWyr++zuuYLkPuFxg5cnW7p66muevbzXK+i6HGpiK97vC8Tccc244LTmx2a2LVnmng+POgisKWQTSZjg/GQk3xzIE7ufHOygipNYWE5YpkaSoPlWIJpc8+dHjNY9X4afJNOEKdeYRKvqFIivE0qxwIrwjwcx0+fvJDYGJrIJFCWGIOYyQi9T15i4ze78CTFfiSKBpeqcm5jF0pWMaRP74Ng34iRewUrzjULVTe8bv6/zc8bv2dySxvad3Yvtd1dSnuyXOsX3sda1MSpbrhGB9czlD9XWYfOLc7qt+r+y4iVtlpXDi83e3nfN/cceMuLjmfONX4didYofxZJ+gMWDwJpCz4SQnwTd4NfCSAb9UMLzE1d+oPpPZ3E9xibq8brnk5A7rusX10msS7ZmMkknjpNDucBK/ZzGliHj775Ja9WkPjsxmDpZ61vdbRmISb8MV3evjEkTXh2KBJYiHet6X9p2ad/4R9rhdWm8yPEpAiu3T+jb3xL1r9zr88/2x/+KMBOrU/BjQWJJRNO4wHLXDuU2R3x8+gpW2J6x+4z4FhYLAmsKA09qXRI059y+udclFzn+wi0rtDTpQPMFlvweGKi5ialnsuoYrbt/f4ve57cjPN6Dutcmvo05jpQJrLQP/OO9ydn3t4qDmgl8VnviGAxiLjP5ZGI29EfaZntc9vvnrZNVBZZ8y+MmfjeOpO751d5VVrAiv6p7i/B88P6rwT1ysWN9Kf/N3ce3QWEU9LMjjt1s7hiLkQB9/DcfXB9/Rahw99fX2e//YpO/ghzLV1LWeO4bq//AGIZFg8CahJ4AgwGiJokwWWpxJH+J0g00dY5s+9elAy2cXOV4r2DKTEz2+iRxqwSmv2kZr7skkaBcdVwSUDeRJW11PLx60Uss44lmqZQJrNhvesL1Jynbf/3+1tdMEsITmNOeOKZl28VLJiaSOA7HQDZmVTzLWMpN6OtiFYFlBYDrW93Xsq93XLc+mrmCNSBu4r4I/Oj1R3yP7lxVtn7dGK4MCbYt0r9//PP1UYHl0H2q92diVbUvEXMmD/n3q7qC5flQ2m7vNdVc/Ufuo0j7AU4CCKzJ6ARhB1dOcMggipOgJNxsEuuIJxeXxKx15ycTkyNOEGH9xuvu31PuFyfJuPyuHl4SFAuS5gmiTGCF/pX+cd+RRDEz5G9vgheb+1rGZ157whUYeZUzuDqRi2OvXVJv+bP83DgJ962X2TkiapcdU9Ieu4qS75P5K1hpHlGo+8djOz5Ptm05Uj+JH3/s+/b0wWEnXGx8xvE2LrB0v3XtzuTEjq7++q8wbb278tS1UwWWbcPgGMj4q8XUUfwkf+kqbyGkf5KY7ZjWf5uMXTgeILAAKrC0eDp+7UkfRNbNqj6wYiQ/obrJ2ImQdAUrIRBv4ot4xSS/ihIKrPA6K7DknFCIuDpmBYiiT5T5durKe1E9dblDfRjWV9Biqm13J7Ac1td+PZ3Ay/jEiCdbR32eji27zxdS1kct0bWunqxgQR4EFkAFEFjrRSao/hWE9UCOAIASEFgAFUBgrQmzatC3krJOyBEAUAICC6ACCKzlgQ8AoAQEFkAFEFjLAx8AQAkILIAKILCWBz4AgBIQWAAVQGAtD3wAACUgsAAqgMBaHvgAAEpAYAFUAIG1PPABAJSAwAKoAAJreeADACjhRAssDMMwDMOwddlRwAoWLIqlxRPjAx8AQBkILIAKILCWBz4AgBIQWAAVQGAtD3wAACUgsAAqgMBaHvgAAEpAYAFUAIG1PPABAJSAwAKoAAJreeADACgBgQVQAQTW8sAHAFACAgugAgis5YEPAKAEBBZABRBYywMfAEAJCCyACiCwlgc+AIASEFgAFUBgLY/5PnjYvPPCX5pTP/pi0L538NCcr/jDl9lz+u3L5lefmWstn15rXjy927xnNltu7DaPXbjWfGw2Nfead597vDmzvZ3Yk9uvhtdnuLO71Zy6cmi2hMPmra2tpKynDu6b4yEPr56ddJ8ccu329k7zxl2zo8PV4flbZpdqe1ynPovrI23sq/8Qvm+krrl7ifl9MnSeb/l2K3r6PeyjIXQ8dH5L6I+XIbP+22y8HDa/OPf2ZN8G9VJ+fPmJ09nzfFslLhBYRYwF6BqIkocLwMPmza2z+YEoqCB66fS57rgE4NBADI/rdmaDPTfIZzJWFx8ZtH77xdKJZPOcaIEVxdZSWFVg/eSm2czw7duRwMpihNrr35jtmPKJz+UsyRsXmz/++Xp2konHVjhp6mv9sS/HsxPRBNET3itso39Pf5LOio/JIiOqv4rjnR03SQ9NvEEboxwo+Szrg7j8MYzP+to+1fqFwXAc9c1r0r6pOXdz8TK9XnPmG0tvn46AwCpiswJLgjEROSoQ9f1HBFbEWJCFx6WdZ5sLO2fSIIuSyyrMCfjcgJR9vU95GVYZYGPMjafexHJMWGdiWIf/18GqAiu/8uRsSGB99Jq7/nsH3+jyfvbX4UkjNwZVXuibbCT2YoEl14b7FQNltGSOD41PyR+58iQe0vHbl1sn5LkJk7M1P5/e2bXlaiHzyvX9bG6L29hdp+4r5e3vX8iP7RkCK++TiJ5+nz62Vpu/pG5ThEzCWuNFI9eOtSfNP9OE6yr5GoFVxOYE1nhQr1tgPd4mnGSl4hgILGFOGXPOnQoCazrr8P86WFVgzV/BcsLMHhOh1Z338YPmuWdEdHmvB9W4e+byh2ajn5yvJfb8icOKDDnXj8nhftKTUm5y9PfJdpC3jPiRcm098vcoE1i5Mgfbo66x9e7O68ltQRu766S+ul6xHzsmCSzd7pUEzBjq/lNehYkNzWnSvvn1W3e8TGc4rvP09ukICKyJiINt8LmnHj0YXrh1u1PAqbIO1XH4xBQGVxK4Krhk+5Pmfk+y8dGJ5zcfuKV+/15xYkqCzASyvU6ewtxxl+ySOmaSkO8rsSQwB+8lhD6LB2A20KN6xHWwvrODNN7fd/5UpseT9qW9Txcvpq9/e+k73f2TPvL6ocPz5egT7wzmjQ8/tobHRJ//jyOrCiy7AtVnTmDZ89PvqgKB1fFN89oPvf2q79uxoGI/fvCR2LHjJI4j6QPnd+k789pGlZc/z8Wszimft9vZcejFYxi7mrj/xbLlRONETOfC2zME1vjKhPWDX68ubw4IEl3nsI6+v7NtUuWNCazeay0DdYotzP+KKEfmyeSYCKnjv56/0NYj18ebjxfXz/7clLvWmr3X0Dl9lm9zHgTWFOLAvPGB+a0DyQ9k6TDXyalql+DsjqvgcufqsvzJyA22CU9t5l5xeS4YBgSWqkcwGM0gdtf6g07/7toU+UbKDQe2rlc3YEfvFZ0f1Vv8mx2owXn3mncuuUQW+Nxsh4Nk+PwpzB1ISTtMovETW66erh8UsS+DeCqjVGD1j4lcu44nR5UcJ2PGTq7Pxcf5cZJOKq6vpB/tNzL+b0OcB0dxE581P74tUlf/HB0bUayre4s4EYEVlxlep1DjQP8Oc0ccd+KHsD5yT3d+X3vTHHTY7O65gnp937VBPzDn2jBkuTGTtsGyav9Ffs8g7dMxo4VT74PdRuNFYfxrx0Kfb+I4yJH28WogsKagOi7/EW8mGP2gyk54/qAPE5r8FYSsYOjy/MEeJoo8mXOC+4fH/SDLBVMYhGmy69oYDKL84Jx1r4zP5Li9pj/wB3wU1DFuW4bo/CnUEFi5dof1DP2b+sKPmTJKBVbvmFCM+v+YMMcH/rdTUy19BThi3bdY7mFKr+hcbH4/IDys+XHj+kf6zuYgr+86keLh96M6nruHWDrhphNnzsL4j+JI3dsKrL481tHVffy+zg/jcWuJx92d3YvtKryUJ/ulTvF9rMVjPEauzee3PGFfeuTqrvZNXf3KlmmQOgbtMLFwtPGiMDFi9/X6JiIXQ3JtXP7U8nwQWFPxgtM5eXhQZgd/cE2Y0NqBZZNDECyZ+ySsKrDyZYd1T8+RYLP1dAO5R+SYevS96vTvJb/jgSRmj8t9swkoqIciGtD+ikq2XwbOn8LmBZb+7dfZ2nCcTAOBVSc5yjdX/X8NaFAC68fPfNX8zmxmkX/OIfOxux0v8ZjoxmeGcKLwBZZCxeG/nN9rXj/3ZBpHE/pR9iUTX3wPRVgHRRL/aXzrHDIusPriq29/SzT+5V6ff7bfK0g6f5vreldxZiJ1zOa3HhI/WoL5oy75Ptb9FdR9o/GiiNrc65sMcm686i79qq/XbZO63//sXnt8Kgis2Wh17Ts+6EQ/qHJB0F6TJgj/L1gkuG7f3AuCMRecIf4kZwjuHx73y5NgGk7QmXYaP4R/aZM7T6HqMfle3rk5ctcLwf7Y72MDfeT8KWxeYOkyEl9XAoG1Yo6IhFArsDKrUcH3VSsJLO1niZkH778a+dOuhucnfRs38t+caJD92f4x/SirZVK+fWCy10m/5h9MVlmRiPKZurdMntLWsYclO7bi9uVsUBj15AFbviD3z47B4NpMbu5BygvywghSl777JwKrJw+HPpS6huImRs6Pc1WWjcaLImpzr28UYZsNyj8/OLjetn9v77vtb1uPOX3ig8CagnK86yh/AhmbTHSg+J2TBKc6//zO+Sgw9D+JEAaHLisJqq5umUEcTNrhcT/AkkBXdQq/i8q0U1DlS/DFCS8cNLre9trxe4Xnx/iJQeMmGusXv21CfM/c8aHzp7AOgSX74nqLvzvfRMdrgsBaJTmaj9a9Fav1rGBpH3fxE8VON7Eov4eTrL7OTlC6j8IJVa61HzAnY9CM1XjCkWtkXxK/Hemk3dXREsd/FDMWuW5o7PqxGN+jO9f4RU/4Yc60bZFxJf82WF8dwhwk+H2SyWGqfVNWuaSOadn9JH40pH6JxqXv78z4HKqDHO/va49NxovQ9evt9pu4Pt8IaR9q/9g+6o6rMkv+jT8E1hS8QAmDJQpaIQpWO9jstWlQ+QNTIwHcN3Ha4EzL8yc5QxCE4fF4AMq2X+afru14xzPtNEh94rr6ZYnF1w3fSxH5209McfvF0nqFPn/28l5vn+hrx84fZ/ZAMm3s2pZLGAq/vU8fHCb9EPs6V8YqrFNgpf4/nszzgRFXP/u6ufSirFJpwTRVYM37BivEjeV5uUSjJzP7DVcXPyY+g0koilEbmxLD1/b3ut9BDmoJx1ef+WW7Nnmo++dyTZzHbDlSP4mvXM4Q0+NJx61cJ/uG41Yj5cVzQNdu47dsXGfqHxOWPY5to62HbVvSD3F+UfV0wiEes6nA8fF9PMgG46XF+N76uN+Xfnud3/w+C6/V9ZnU5ggEFkAFlhZPjI85PtDiKnjtN+F/geN/5D7/FaGbhOyElZ+sFEOTvldOOhnpY/F+K0YSAdSSK294wm4JJmOZ9KKHxbaMeJ+ui6tHeJ0VH3JO6BtXxz7BY8XAkJ268l5UT11u3s+asL4a60+x3j7swbZxmJw/fZGRihGpU1+5cmyO2LDtW1+8aBLfqnOsX2PT54U+sONEjmf7wZSXb0ceBBZABRBYy2OqD25+9PesgFqXff+Vr82dAeA4g8ACqAACa3ngAwAoAYEFUAEE1vLABwBQAgILoAIIrOWBDwCgBAQWQAUQWMsDHwBACQgsgAogsJYHPgCAEhBYABVAYC0PfAAAJSCwACqAwFoe+AAASkBgAVQAgbU88AEAlHCiBRaGYRiGYdi67ChgBQsWxdLiifGBDwCgDAQWQAUQWMsDHwBACQgsgAogsJYHPgCAEhBYABVAYC0PfAAAJSCwACqAwFoe+AAASkBgAVQAgbU88AEAlIDAAqgAAmt54AMAKAGBBVABBNbywAcAUAICC6ACCKzlgQ8AoAQEFkAFEFjLAx8AQAkILIAKILCWx2o++KZ57YdfNr8zWz7fvv1Fc+r1b8yWo93/oyn2ZfOrz8xFLd80l1580HxstprmYfPOC1+E53z8oPm3X3r3VNvPPZMrW9nP/trc/+SvzY+f+UrX/w9fZuub487uVrO9vdO8cdfsmIFc+9iFa147AJYBAmsTfHqteen0ud7kIwnmzPZ2Yk9uv9q8Z86B4w0C617z7nOPt3H71MF9sy/Pw6tnm1NXDs3W8WXlPhVhEomhPnFVxB++bp59WcSRvVcksNp6fNEKrFi8fPTaX5qf3HS/v3fwUG8oATZPYB02b23l85e152+ZU3Pc2G2F2YWdM6NxA/CogcA6CpTgevH0bkY86UlqMCHBseSkC6w5ommpAmv1lagy5L5aIPkCS347ERVTLrB0rup9CFQ57uUnTg+LJv/Bc+QhFOBRBIF1FCCwFsdJF1iyCjt1BWLJAqsTKgZfyGgyr/FWQMrNi7c+E1H3363oyh/X9j+vT3hFaMSTzlOSs856wmhEeFmCMgw3dlm1h0WBwJrEYfPmlp9EFCoZuO8GdFJ54dbtbrk8/B7Bu15d5y+fhxNNJLByQsx70rMTlfw3X57Cu1/8jYT/apJvIMqYO5D8PhNzE42OgVeu77cTkPTLJ83tNn6u7e+159o+zpcRxVCL3jfnFcz09uiybR26GIvi3L93KLDCV0xBHQdidxOsIrByoiU1t4I1XyilIk7Q4u6bVryFrw1zyHdiTuSttoLl42JgUj+ZfvXjtet3dewo+hpgHSCwJjFNYPlPX+GHm9H1k1ew4u1wcrITrJuU0mQVPBH6dQ7q3zRfv38LgVXAvHi617xz6e3O39KPcSz5fWNFSCie+8sIBYyiN976mZsY4hWsO7sXg7jz49CvX3jdvebDm/f0z6HY3RCrCKyyFaxQ+KTbMXJcCzR9X/taMF6pMoLJ0ApBTzgFAstnVGA5cez3pxNPMWmetPv82LGrW8E+gEcQBNYkpgmsIKkEk9qqAksxcJ9kIhW88+NJT1/vVtLCRAclFA2kIB4yMZCLv5iBeMvGyQilAiukvz5yXa5ug7G7IVYRWE7UDFnf6tJUgaWFVCyc9P70fFuvVuiJaPrZXwOhGgssf1UtJ7yk/0RExaJZ9uVMn/d5G9dpjOh4z8VOX2wAPCogsCZxhALLv1Zdt7MTrlokCcic80lzvy0rl/C68lUbZJsl+XJmDyTje2tuspohsHrL8AXKasKkWGCpOJRVCFs3P8biuJVr5Zx4PNlrfQv9sl5WEVhFK1j+67mW/hUsXwRNs+EP69N6TsH1k+s7DxMDOfHk0GUMnwPwaILAmsRRCiw3ecnE5CeirMDy6iXXTZqQVH34C54yZsVTEDuKIB5yMTAWf4o4pszxzz/bD0T5VIoEVhLfYf2zcauQ/bNjd43USI5zhEv86i4nsNJzHO2xn33VPPuy/29jpdgVrSnWV3crirs+UvEWi+ZpD24ILFguCKxJxElAf3vgJrj1Ciw5//zO+eQamZDCJKbr5Se9vteAD69eDK5LJnCYxZx4igWGbM9dwRouQ5Byzrb/vlASTxMoElix+FPb+RWs8Duy4LqB2N0U033gvoWaZb5Qalev4lWmVGCJYMu9ttOiyfs4PXl9OMyoEIz7NIMVXWLTBVOcWwGWw5EJrH/+85/m59Ewu+FK5NhXHpL4b9/cW11gKWwyCp/kewSW2R+eayeq/fZYX2KTc+wxMX8C8/evMgmDY148hX859+zlPS9WcjGQE8BDZWhS0TWdIoFl2mDrdurK5aD+TmCFk3Jc197Y3RA1kuOUFSy7opSeFwss+xG72VRI+a1Yi76rEsGm/8X24VeDlrF6Sl/0iiAvl8zPIzpWEFiwRBBYjwR54eVPVHC0HMd4KomPR2t8rIf1CyzzsXosjjw6AWVNnftJ83/ditngX/kJbnXtewd/NR/He+VNsdf/j8o/3l+Feg+bYmU5CIEFywWB9QggE2Xu6R2BdXw4dvGkJsGS7+oQWNN9cPOjv+eFyULs+698bVoKAHNAYB1nzJNi32seBNbx4fjEk3s9V/LaF4GFDwCgjCMTWP/4xz/Mz6OB5Ak1WVo8MT7wAQCUgcACqAACa3ngAwAo4cgEFq8IYUkgsJYHPgCAEhBYABVAYC0PfAAAJSCwACqAwFoe+AAASkBgAVQAgbU88AEAlHBkAsv898ggeUJNEFjLAx8AQAknWmBhGIZhGIaty44CVrBgUSwtnhgf+AAAykBgAVQAgbU88AEAlIDAAqgAAmt54AMAKAGBBVABBNbywAcAUAICC6ACCKzlgQ8AoAQEFkAFEFjLAx8AQAkILIAKILCWBz4AgBIQWAAVQGAtD3wAACUgsAAqgMBaHvgAAEpAYAFUAIG1PPABAJSAwAKoAAJrecz1wUev/aU59fo3Zkv4pnnth2rfj74I7HsHD83xkG/fluNfNb8z2/N52Lzzwl+an9w0m71801x68UHzsdnS133R/Oozsyl8/KD5t1/6bQGAuSCwACqAwLrXvPvc482Z7e3mqYP7Zl+eh1fPNqeuHJqt48sqfRqKLBFYXwaCSY5nBdYfvkyEWGI/+6sninJMFFh/+Lp59mUp80sjqiKBZeoiAmv4fgAwBAJrrRw2b26dbd64azZhsZx0gTVHNC1ZYAWIUIlEUU5gtaJMiZ1W9GRElF7ZsmJoiKkrWBopV9fFF1jzygCAfhBYawWBdVI46QLrzu7W6MqV5WQILP16MCem/H2tuPJFlV3Jev0bI7z075ju2AwT0TT/uinCDgByILBmIJOIvAIRe3L71ea9dq97NRLs//Ra8/ITp7v9j1241iVRmWCS8zsOm7e29H22t3ea33xwvXnx9K53Tng/OccJOH3slev77b3lnjdffSKZ+KQddoLz2+TXEeYxN578GBB7/pY5kOnDT5rbrVC/tr/Xnmv7Ll+Gvt6VJ+h9UwWQML09PfF4Yzeom3/vUGC5eI/P88sI43wzTPeBXvXRgkS+ofpbuz36KnCicMqWk0WLujmrT3oV65t2BSt8bQgApSCwJuKLEuHh1audkPr59XvtvnQiS1ewZHKJxVY82cSTbSzm/HrIJBQfD4SSOh4KJ69O0bGv37+FwFqRefF0r3nn0ttBDLh+yPShiYug3wfKCGNKoWI0FOnjrDI+fHF0Z/eiu18Qo2H9wuvuNR/eNGMpuiaN4/UzOzl+/KD58TNzPlJPP4LPiSP9itCzjDBrUfd/7pmB4x3uvu4VoQiz//aEoljJB/cAgMCawowJKhZMocDSk2e4uiDnmMkoN4n4987Wwy8zV360z79HPInByhQNpKBf+2Jk5FVzUEZ4fiK4JlAqsEL66xM/uFjS8sQvIz6oTJHAGvxoPV4lSoVW1kY+cm+F2Otfq7LCD+sddqUtFk7+N1gOK+z4HgtgNRBYUxh5epbJwL7KEOsXWOHrEGv29Ud2IvQnzp56uMkoNzmnE1pwXJXp1wFWY/ZAMn63Fq9CThJYvWXEMTFfmBQLLBW3/ityP77iOLfjx8W29oG91rc4ttdJkcBSaMETria1+xKhJAIr/WvDQNhkPpgPaO+thVvuvha+wQLYHAisKWRXjjTxxBJOHvHEODzZybWJgFKTaDdx9tTDiaa8wLLX/b79lsd7deOjznnp9LnZEzFoZsVTLJSDfp0osAbLUJjjn3+23+zsuFeJUykSWEmc9q9g+fjx72L66FhVYP2v5tv235n6pNGv3Ow3VHpFKPfarXQFS69MuW+17Cs/szmCFn1fNc++7P/bWABQCgJrEnrS8ycF/Q3W59FkGJ+XToxZEWVRE5M89cflxasbweTkC7Ds5KyRCev8zvlIDF706tazSgKTmBNPscCQ7bkrWMNlCFLO2ebCzpmVhEqRwIrFn9rOr2CF35EF1wVxfTSsIrDab6CUGPI/TO9WjXoFUskKlhFn8YqVqcuYyApEX/taMycAAWAVEFiT0ROffVXhTwR2n0wil/YuJBNfcL5CJiN7jVgsmOx+KW/srwjTSTUvsOJJrsW7l9gqEzFo5sVT+Kr42ct781ewBsvQpKJrOkUCK4rRU1cu965g+WMhrqsdO9Z6H0zWxOwcEYkg9zruy+Y/9r/qfqev3FZbwdLiaEhEmXIzwqxX9HUikVeDAKUgsI47SgRVmVhqlQNZjmM8+UJmLo/M+Fgjq/rACp/8d1BOTLlVrnQFKyEQb+Zj9YxwymHr8/2DB07Izf5LQwCYCwLrWKNXKfzXequhy2GFan0cu3gq/KYOgTXdBzc/+rsWLQu177/ytWkpAMwBgXWsSP/KsFRc2Vcw5SINhjg+8eRez5UIagQWPgCAMhBYABVYWjwxPvABAJSBwAKoAAJreeADACgBgQVQAQTW8sAHAFACAgugAgis5YEPAKAEBBZABRBYywMfAEAJCCyACiCwlgc+AIASEFgAFUBgLQ98AAAlnGiBhWEYhmEYti47CljBgkWxtHhifOADACgDgQVQAQTW8sAHAFACAgugAgis5YEPAKAEBBZABRBYywMfAEAJCCyACiCwlgc+AIASEFgAFUBgLQ98AAAlILAAKoDAWh74AABKQGABVACBtTzwAQCUgMACqAACa3ngAwAoAYEFUAEE1vLABwBQAgILoAIIrOUx1wcfvfaX5tTr35gt4ZvmtR+qfT/6IrDvHTw0x0O+fVuOf9X8zmyvQlqHHN80l1580HxstprmYfPOC180v/rMbAofP2j+7Zf95dzZ3WpOXTk0W8Jh89bWVnNmezuwpw7um+MhD6+ebZ7cfrV5z2yvQlqHHIfNL8697bX1XvPuc2ebN+6aTeHTa80zlz80Gw4pP62/XP948/wts5lw2Ly5FZWf3TeRG7umjdq/ffWJ/R5bXz/kGWujZXXfTmXdfbxuEFgAFZgfTy4xjiU/mYzGk0xdGB+r+SAUOCKwvgwEkxzPCqw/fJkIscR+9ldvEskzSWD94evm2ZelzC8bLaoigWXqIgJr6H7h5Cci4mIgmPICRaFEQywAYnvswrXRtk6afG9cbS7snGm2t3fMhBtNvqYuMvmG9+sRRWqi3tnxJ/OY9DqpZ9w+sSlt7ATWp3ebT5r7GeEzLoYkf6xFYK3s2+mst4/XDwJrIkcxycGjwzrjCYF1NBT7QIRKJIpyAqsVRUrstKInI6L0ypYVQ8NMElgGKVfXxRdY8vsvzU9uyu8ZqEksFgw5gSX7ZCKUCTEnMCTW3UQ5zKTJ1+BEhj/59ggJMyH7ZuuaE0t6Je7ztqx4//7+hfZ32FZ9X12f/MrfmDm/6rJy5/i2FoFlmOXbmaytjzcEAmsiRzHJwaPD3HjKTT59HEXsIbBKfaBfD+bElL+vFUS+qLIrWUokaeGlf/fSnu9eKzqBpYVSfG1X5mSbIuzyr6/iGJftQGgYISOxbYXLYJyr8/3Xim7y1ZNofK0tc6p1wk7dJyjLrFo9eP/VjCiMV+78FSztl5/e0itPusy+V309jK6YjQsIJzxS5vpITO61sm/H2FQfbwgE1gTiTrQDJgxqHQBtIKsgkYEoA9JekxuY/pOLPwBkQNj9pd8pwGaYHk86Tmz/ugEfxoMfL7HA8uMxjKv+mJrL3MTgx6yYGxt6wrm2v9fub9thxsdvL33HOzf0Sxf3aoJ58fRuOAbUvpdOn1t7opzuAyNmWkEiYudv7fboq8CMcMoJoGw5Bjk/EWy23I8fNM8988XgapRexfqmXcEKXxv24fpJ95FeucnGmupn25/xxCjkJsehmJXz/eOy3ZWrYuLlJ06PCo2nDw5Vfc9Gr5QiMgLr/M75nvJDgeWPg/hce2zWuJwosOw9+yy4ZyRiUnQeGfJlzGTfjrCxPt4QCKyJSMf5gy7els7vJgKTWPzjQaAkAew99fjlCDc+GBgIcFyYG09xIpGY8ePBj48g1tR5vqj6+v1b5vdATK3AvPbca9655CYBqa+ro65XMFbM+AgSpYr7n1+/Zza8hxXz2z83GXtrYnZyVILmx8/M+Ug9/Qg+J4b0K0LPPAEV3y8QWIr22uS1o7uvFmf2teB/e0JRbKAtcZ4aRceBP+kH/W+QvvXP6fo5c78wp8ZxZ3H39ePJPiTb+wSCQ8VnEF/q3lbkyD2CcRvU67D55bkdI/5FeIrwcq8O5R5//PP1ViT494vbbE3Ewa/v3g4EXBVU+wYFlmqT1HF8jK3g2yE22ccbAoE1EenYMODCCSw4Hk2CLX7wZI53A1edt4mnc6hLscCK8I/HsZVNFEMxtQJFiSGadBKhlxsfEf3jKRVc66JIYPkrVYnFq0T5vzZMbOr3XMHKmP+q0q60xcJJ9kd/Raiwwi67AhblMzuJxZauIKRCK2dxfOTGSzz52rL1eTpO0rEi+9MHD4k3uW8bV5n2+PUJ7qv8YMWX7H/hlggi97DcK1TMsVybwtjO11eQc+N6jtmUfKDH3uUBYVfg2wGkPRvr4w2BwJpIkPANLiCiDs1OIG4p2XZ0bP6glcEn+zYZDLA65QJLJws/HuzxJPbMBOBPXqMxNZPZiSGalFzSmy6w4gnD1d0rw5vQ1k2RwFK0AiV6Ddi/opT+tWEgbOIP5uNtQyqwFK3Y06KuPR4Lt0HreWWo+sFfbcjlR9k3lAct0u9BnovjYyBekvhW59pxEcfTmHXjSZURlJuJua7O5pj8hZ+s4n7SeAJL8HJ5bLGYEBJfKHL7hsj1xWRUfe0D/lA5K/u2j0338YZAYE0kG2wmKD7/bD8cgLlg8RNSPIB70WodkXX8KRNYWlz5/ewf7010XjKcHlPTmNWeON79WJ8osEJ/pG22x2V/bmJaB6sKrP/VfNv+O1OfNPqVm11l0itCudduc1ew8itOQlZgmZWreLXLokXfV82zL/v/NtYIpo9/rwSF/BtE9p8Q8GM2u9Jqclpu8vPNxUd+NUKQmEhjXo+lvhiRev3r+QvDIj0eS6qtvecnx6J477m2L46lTXG+j8dCvB2PJzme8+n4uIl9l+alISb5NssR9PGGQGBNJAnqFh0Y8jFdEIQq4CWg3b44IAaEk7o2vm5qgMPRUSawYhHiL4OHsffw6sXgPHddXTE+pz3x2JDteStYcZzr7WC8qYlKPjT2V03WzSoCSz4qFzHki5lu1Siz4qRZYQWrh7zA6icQfe1KV04AKuI+U/1hV2b8iU7iWvbFAtoh8TBzBauH/OTbTxCX6h55AahQx+LY652sk7rWF1hShv/ZSJg70rESj8eEbNt1/kiuM/08llcm+3Yma+vjDYHAmox78vKDLehQixl09q+kxPoC1x7vli6j/blBCMePMoGl48j2ucTT3t53u+NBwlSxZc8TCxJfX0ytwLz2uLEh9uzlvdkrWH67pN6X9i5EYyYjutbM7BwRiSD3Ou7L5j/2v+p+pytPq32DlWOqwOoVfZ1IDOspMRjkoqgPJZ5t39m/GM3HXxgrfVZTYNm6JWWa8ZLUMxpjQ/UJxmZLKrD8MelbLrfbulqzZct9pJ76o3dbvh4T/3J+r3n93JPdPJTWKUK1z5+z5Hy5V7+I0n2W88Fs385kbX28IRBYhWSDOTeBwKI5qoG0Lo5fe+JVrvWzqg/0qpCyrNBxYsqtcqUrWAkDK1hOyKXCKMQTcqMizJ37Pw4+Vb7Pf/BsJ+f8JOjElBMT6QpWwkD+9AXI8KTp7j0+QUf1VPcPrlGTtFuFCgViWoe5K1g6rm15Q/FtfS2+iV/JtmSEYWyhqNP3njpX2fs/ffDe6r6dwEb6eEMgsEpQgyf7F38IrBMHAmu9SHLf9Jia6oObH/3dEzjLs++/8rVpKUABZjXJiidr4+Lo0QWBtRLuqSP7xIHAOnEgsNaEScpH8S3F0voUADYLAgugAgis5YEPAKAEBBZABRBYywMfAEAJCCyACiCwlgc+AIASEFgAFUBgLQ98AAAlILAAKoDAWh74AABKQGABVACBtTzwAQCUgMACqAACa3ngAwAo4UQLLAzDMAzDsHXZUcAKFiyKpcUT4wMfAEAZCCyACiCwlgc+AIASEFgAFUBgLQ98AAAlILAAKoDAWh74AABKQGABVACBtTzwAQCUgMACqAACa3ngAwAoAYEFUAEE1vLABwBQAgILoAIIrOWBDwCgBAQWQAUQWMsDHwBACQgsgAogsJYHPgCAEhBYABVAYC2PuT64s7vVnLpyaLaEw+atra3mzPZ2YE8d3DfHQx5ePds8uf1q857ZHude8+5zjzfP3zKblk+vNS8/cTrdr5B7xPU5deVytp5itozcdda2t3eaN+7q81pu7DaPXbjWfGw2c4ivcvUbRJWbu39so+Uq/7x4eneGny2HzZtbF8evU/UM48DS01+wWBBYKyOD7WyYWFYgTcoFmMRqE02S+GYideubDCBkfjzpZCv9NOZjmdyqxchE5rWnf+KoGt8bZpUcEbY3nZB7x9QE8ZCIFm8iHxJAYolw6xUBjju7ufwmfZ3Zr8rr6uf9HqtXbIM5y79HlokCZqMCKy+yrblYcPnAWtw/vi9TP4T3QcQdDxBYK1NHYNVCBl+SnFQi+fn1e2ZjPgis6cyNpzmiac65taglsKZxvMaSpThHZARBbkzJPhm7F3bOZAVEdmy3PneT/XCM5IVe0F+BKBB6xITKKTs7b6cix2/rqBDK3H8KqlwrIIasWGBNvI9v0j///l/XgwdcsbCvh8bJyBhQdfJFsvjP9Zcut7uXat9Lp88du/F0EkFgrcwxmhSiwVeL3GQAeebG0xzfIrCOhrIcoVcUcmLK3yfbgRgxk7v0txyzv2MkJlp/m8n00t6FYGKPLcgPOYGh7hvcp0dI2Tr51tZDXZ8XWDo24mv6bDDOg3JzxHE4vHqUs+E82iM6Y2JfdowJrP6yk3zh92GmP5Pz4UhAYE0mTBQ/OLieTAqS9JKBmktm3r508gzv4yeUbPmKaYMpLDe3FO+XL/f97aXvhOWqxNF3fV/dTgrT46mvH8LJIO53P0b8SS6ccMIyShJsLYEV1j1TPzUW/Kf+4Ql0s6zSpzr2P2+3s/73xlBuEs4JmLScMIbkeBwjQ8g94nPlev8+8XZLkss8YeyLn1EhpOuQFxoZPJ/Nsd7yVXmr5ai5Aivspz5r65mbJzpyDyBuzGX7fkIfwPpBYE1CB7OfcCRB+CJDgtwPaBf0biBY5FpbVjg40vv86Zp+ipxTfoo+JxiEUZKJy7dJratLnJT8ARwnhxsfjCehhTF3IPkx0KL86fpQCxG7HcSI73fF1+/fMr/Da/JJeTrrEFhhm+81H960r6/L6rouZifHwUkyRyg4u8k2Qnzon+PHgv0t5zx7eS95RWWty1Xqmtx+6Rt/f3xcyMVsF4uZ358099u4yJU7ZME9OuIYm5L38lh/Dl+b9k3OskLN+Nj3XYjUPYr3wQcNBNajCgJrCtnE6Qd9brDLcf20Ew6AcLAEx3oHxVD5+ml5MFlk6++XmSs/TKhJcm2vMe1Q5Z/0d/7FAivCPx7HSF9Sj2NHrhu6xxDrEljJRNCSm0COniKBZSbZnKUT77TJPOjfaEyLn0VgPXP5Q7V12Pzi3NtK4Nw2/xWhI/6VXHGx2dv7romLMb97x018PXj/VRN/0SqdH3+ZWHToWHnl+r6p61T0dbFPLu1dSvaJ9edDXY5cl4/FkGDsRSTHVJ9YkTRctpc7e5Cx4nyY6yc35rJ1HOwD2BQIrClkg9UP+nyCdIlUzjVLy6osfzD4g6N/MA+XPzZZ9w02d10+0brj+eQm1iUyL7n0J7flUi6wUh/b40lcqP6U4/5ELef411rLx9M46xBYgrRb6hXGYz7+jpoigaXIjWfZl88l4asn8VPgz2gMWz+KieAR0TQusNy1Q+PeYY9rYSb1u//ZvS7+ele0e/KN4Me9/9vGbzgmfOIYc9uhr1Jf+lj/29W1XMyG9MS2amP2QUdQx2y/+/3UZ/k6+H2T6yepl96XizO/DnB0ILCmECXOFrXPrdq4YO/DJoEwGUSDozcxjZQ/kNBacvVXuLrkkoje5yfDfCKI0WJw2rnLoUxgpf73j2cTqODHYOWEui6BZbETnY7ZsYn+aFhVYP0+EDZuDEmb85PyCitYAdp/v/kg/Ss2a74Yd7Glr7u2v5e9RlaZsivTqp1yn6C//RyUzUe6jWH7ddzIvdxY6MOd61tbBy+/heMqwh8vZjuXF1PCnNbfj4bRsShtGYt36RsrFDPjy697xt+DfoCNgcCahB5gfsBKAMcrCP0JUNEOusveoNGEE1B6n75vsEL0AEwGvRqE+p9p0MeDQa/q458v7QnKV8eDxBedH6COucGfSQYngDKBFQuMMA78GHl49WJwnrsunARKqS+w7jXvXPL+Kk3FjIu3uP3Hg1UElhU4ca6Qff3j159MNXJN4M/AXwYzRsVkbP7xz9frrmDlBIhpo9++hKiuEgNSPxGeudUlqU9vbumIYyzaNr7o9bE5HseordvwvTXj/WhQ93K5Vtcz9Jfsi/x+42qwLfcay9e991B9dNI/2TguILAmoycwm9BeuCXJIhwkdgBaCwaIuT5OTP7kqQnv4x8bLl+X5R8PE4cehPljGr98KVu2/frG5XeJxptYxAaT70IpE1ihb6Vv3HcyUYyYicJaMGFE/eA/AMxlFYHl10tM6ubX3Y+vOP5s+0cnrw0yO0eovvHrb9sr/WBXifJ9Eo75PnNla3/7fm1jRfX/VIFlyxyMkWhSt30Ui5QE44d4BU/qJQJLhKCNU1eW80GaP4b98/TBYRB/Yf20r3L5rsOMqfS+gru3lHH7plvt6/WDKi/OzeF4lzrFAisc1/H1gp8j0uOuniXjHuqCwAKowNLiifGxug/sRJibJPNCIl3BSjCiJRWfWkzZB534w3FbF19guMk+s4LV97Ck9g+/TgtFUFasGBFRR0Rr4WQ/cvfFjrRPRIb9hz+zdUnQ5cl1//muE1FDwiwWqr++ezvTtx6eiBoUfLAYEFgAFUBgLQ98AAAlILAAKoDAWh74AABKQGABVACBtTzwAQCUgMACqAACa3ngAwAoAYEFUAEE1vLABwBQAgILoAIIrOWBDwCgBAQWQAUQWMsDHwBACQgsgAogsJYHPgCAEhBYABVAYC0PfAAAJZxogYVhGIZhGLYuOwpYwYJFsbR4YnzgAwAoA4EFUAEE1vLABwBQAgILoAIIrOWBDwCgBAQWQAUQWMsDHwBACQgsgAogsJYHPgCAEhBYABVAYC0PfAAAJSCwACqAwFoe+AAASkBgAVQAgbU88AEAlIDAAqgAAmt54AMAKAGBBVABBNbywAcAUAICC6ACCKzlMdcHd3a3mlNXDs2WcNi8tbXVnNneDuypg/vmeMjDq2ebJ7dfbd4z2+Pca9597vHm+Vtm88Zuci9rj1241nxsTpN6dteYMnLXiNnrpG7xsVNXLmfbJ2bLz11nbXt7p3njrj6vRdXfr2eOsO4TGfCLb6PlfnqtefH07oz+sRw2b25dHL9O1TOMH0vUz/DIgMBaGRk0Z8MEsQJpUl6RKIlUKRMmMz+e3MTWN+FaZJLadH/Oa0//BFAtvo+AVXJE2N50YpXj2f6eIAJS8bHqxKuFn75uoAwlKHZ23g7v2SsCHHd2c3lR7pPZr8rr2uX9HhJmOUvEmo9/jywT/bhRgZUX59ZcDOm6+8fi/vF9mfohvM/8WIIhEFgrU0dg1UAGUDxw/nQtSoywVubG0xzR9CgLrGkcn7HkU5wjMhN7TmDJPhEIF3bOZIWA9H8oINJJdVBg5DDi6ZPmfn/fZQSW1DU4NxAFQo+YyIk1wffRqBDK3H8KqlzfV302Wu6YwJp4H9+k3/79v643Lz9xOtgfxsjQ+BoZO6pO/qqo+M/1ly63u5dq30unzx27cfgog8BameMzKeSSNmyWufE0p88QWEdDWY7QKwM5MeXvk+1AVJhJWvpbjtnfefyVqFUZ6LtYFOUEhqpvUL8eIWXb4lt7T3V9XmClInLIBsdHUG6O2AfDq0c5G3612yM6Y2JfdgyNr+Gykzzj92GmP5PzoQgE1mTCAf+Dg+vJpCATYTLgcknJ25dOnuF9/MSQLd/s708gurwXbt3ukkb8tOsnv+FEBH1Mj6ewf11fhEk97nc/Rvr7KyyjJFHWElhh3TP1U2PBf3o/TvG3Sp/qcfl5u531v5pEbVtzk2lOiPT2oylL+z2Mq5w9ffBe53/n5/6+k77xxZLULa6z9K9fv3i7JcmBnqD2xc+oENJ1yAuNDJ6v51hv+aq8YSHVx1yBNd6XYm09c/NLR+7BxfV3nFdaJvQBTAeBNQkdlH7ikIHuCxUJVj8wXfCmCUyutWWFQZ7ex77q6y9fYxNzktxMmX5ikHP7ktrX79/qfsN05g4kPwZaVD+4GAlXJoK+7u2v8Jp8cp3OOgRW2OZ7zYc375nfZXVdF7OT4+BklyMUnN2kGSE+9M/x/Rnv6xiaKAPh1N93wXmqPL8ONvf5dcgdF3Kxns0/5rd9bZkrd8jS3CfE7Rto7wi2H4avTfs0Z1mhZnwcPwA7pO7ROFF91P+AgsA6ahBYU8gmTj94c4NWjuunljCQw6APjvUG93D5Dn1eOEAz1/rtUfdc7akMfIoFVoR/PI6RvuQcx45cN3SPIdYlsJKE3pKbCI6eIoGl+sNOerGlE+i0STnoX3Wv8zuXmtfPPdn89JYIEvGfXjlr+8HEw4P3X03jRV0bC6zc/cSkDC14LjZ7e9818TTWX97xpB7R6p4ft5kYduh6vnJ9v3nm8odm3xTy7bu0dynZJ5aLYY0uR67Lx3BImPNDkmOqP6xIGi5b6jA8TmSMOR/m+km3Q9qZreNgH8BcEFhTyAadH7z5BOkSqZxrxJAqyw9qP8j7B+VY+RHqHi6pugHV4U8Egjp/sDwYpVxgpRNBVmAJmf6Sc/xrreXjaZx1CCxB2i31CsfT2IR9NBQJLEVuPMu+fC4JH5bET4E/oxwkx7Ww8vzun2N+29WgINYyAivXd+F5fsyO9Zc9LmJKt+v+Z/e6uA0EX6bO9n4+/njxf9u4D9oXELfPbYc+TvvAx/bb4B8FBPT4VbUx+4AkqGM2XqRudgz3Wb4Oft/k+knqpffl4tOvA5SDwJpCLEgEtc/9xYUL2j7sYA4HdRTkvQlmvPwQf2BlBnquPULQJphDmcBK+8g/nk2Egt9flRPjugSWxU5YOtZzE8HRs6rA+n1zu/nFOfcXen4/5ifXuStY95p3LsV/Aaj7oIspP5fEeUXV0wqnO7v9oiLGxaTur2v7e9l6yipTNo+o+8pKTRAnQ/Vs0b4J/abbKvdyY6gPd65vbR1Mf0m54XiM8MeZ2c7mzwRdd9ve/v43jI5hacvYOJG+sX2aGZd+3TP+HvQDzAaBNQk9UPzAk0CMVxDS5ODRDp7LXvBrwgkovU/fN1g+SZJU93IDeXiQPbx60Ruwx3OiexQoE1ix38M48GOkv7/CZF5KfYGlRUEXv0FyP55xt4rAsq964lwh+/rzgz8pauSawJ+ZyTDwezDmFcH5Uf+oeorA+u2l73RxJffr8pBpR9yfLmZH+sufxC2mTN8vCVEbJXakTSJYc6tLUp9BwdISx2a0re452DfmeOwLW7fhe2vG+9+g7uXmAl3P0F+yL/L7javBdtCPgirTr2d4PLqH6iMesOuCwJqMnsBkoIjJX+XFScYOJGtBoJvr4wTjT56a8D7+sb7ypQx/fzjw4wSj8BOgSSDW4kQC0ygTWGEfSv+5712iGBnqLzOJ2WMlr3xXEVh+vcSkbn7d/fiNJyfb/tFJaIPMzhGqb/z62/ZKP9jVnnyfhGO+z1LfaL/bV4VBbonqIv7ttk0Mtef3Ch9dp778Mxhbqny/f23fjuYWU+f0taYWoH/8s/v3olxZznd9bbB1ju3pg8MgbsP6ad/GcRrg+zHB3VvKuH3Trfb1+kGV5/tbCPOE1CkWWGE+iK8XrP/zx109S/IF5EFgAVRgafHE+FjdB3ZCy012eUGQrmAlGPGRE1j+hO2LoPzEr+snx+S/gwJCIeXZdrjJPrOCFYn77t7+w1yWUARl62xERNr+VdA+sx+5x74TkWH/4c8+/4Xo8uS6/3zXiaghv/p9JNf9+q77J3SG2j9WLhw/EFgAFUBgLQ98AAAlILAAKoDAWh74AABKQGABVACBtTzwAQCUgMACqAACa3ngAwAoAYEFUAEE1vLABwBQAgILoAIIrOWBDwCgBAQWQAUQWMsDHwBACQgsgAogsJYHPgCAEhBYABVAYC0PfAAAJZxogYVhGIZhGLYuOwpYwYJFsbR4YnzgAwAoA4EFUAEE1vLABwBQAgILoAIIrOWBDwCgBAQWQAUQWMsDHwBACQgsgAogsJYHPgCAEhBYABVAYC0PfAAAJSCwACqAwFoe+AAASkBgAVQAgbU88AEAlIDAAqgAAmt54AMAKAGBBVABBNbywAcAUAICC6ACCKzlMdcHd3a3mlNXDs2WcNi8tbXVnNneDuypg/vmeMjDq2ebJ7dfbd4z26N8eq158fRu9nwpK6yLz73m3efONm/cNZsBh82bWxen1eHGbtK2nD1/y5zfx0A7hplYV1XPvC/ED4+P1w9gRRBYKyODuy9JTSdNyiuwcoKCWsyPJ53cZQLqm3Atw5PlepjXnv6Jqkp8HxGr5IiwvakAkOPZ/p4gVh67cK352JzeEo17v+xNCaykTgETBcxGBVZe9FpzfePGp7XYn+Jjeyz1Q3gfRNzJBIG1MnUEVhUQWEfO3HiaI5oeZYE1jWM0ljyKc0RGgOQEluzb3t5pLuycyQoW6X85nvhnRGD96/kLzctPnM4IgEhgBeXME1hWQAxZscCaeB/fxF///l/Xu/ZbC30/FLcjManq5K82iu/dGNXldvdS7Xvp9LljF9+wfhBYK4PAAsfceMpNtH0gsI6GshyhVzByYsrfJ9uB+DFiQvpbjtnfIdrfsXCw5/vW9onKDzs7bzefNPeT60SI/OaD6ysLrJwgdMRxMbx6lLPhV6YT66rqmR8/YwKrv+xk/Po5OJOPk/PhRIDAmkyY1H5wcD2ZFGQiTBJDTvx4+9LJM7yPn8Cy5QvRPWyZ/vnhPcJEx8AvZ3o8hf3rVibCPon73e8/fyINJ7h6/VpLYIV1z9RPxa6/yjA8YW+WVfpUj8vP2+2s/73VmHBManIiqbcfvXFvr7PnBn5X54nAcn6V+vavYMUiKOlXrw1zLC9kFKq8YSHVx1yBFY69PmvrGeXUkNwDgRsD8XhtUXU4TrENmwGBNQk9ePxEJwnNX7aXQZWfFN3As/hPM+FgTO/zp2s6MfaXr4iSgRyTROHKCcv17y/HPrx5z/yGVZk7kMI+UKgE7GJET3J2O+jrKFF//f4t8zu8Jj8JTGcdAqs/7srqui5mJ8fBSTnHBDGjsOPZWt+4780ryeQu/dUvsKatYMV93h8DY9j2DV+b+ipnWaGm2i/Hsq9ZWyJ/CMon/cIfgQXTQGBNIZs4/UGWSy4uUYUDLhycw4nQMlx+XL+xAS6JODkORRQLrIihybJvEoljR64buscQ6xJY+bjLTVhHT5HAUv1hJ+fY0ol+mnhIckM07odiJvR7JCiCcry8Moju87iOl/YuJfvE+sWTLkeuy8dGSDa3GZJjql1WJA2XHfkjg/jW+T8Xr24MZOuYGZ+wfBBYU8gODn+Q5ROk//qnS1pRsvMHY3/yGCl/isBS5/ivCSRhSBkM+jqUC6x0wspOloKKoaD/FXKOf621fDyNsw6BJeTjboECS5Ebh7Ivn0tCUSN+CvyZy0HR/fyY0ve+3OWNsG8iQRGUk9YlT9znbjus+3B51h/2+7Cwnjl6Yk35p/c1o5dzbfwNWb4Ofozm4tX5NNfvcd6HkwECawpRImtR+9xfhkQJK4NNOnHiDAZjLom2jJQ/IbH3lW0TXHpPmEOZwEonDf94tj8FPwYrJ/B1CSxLGHe5CevoWVVg/b653fzinPuo3O/HvAgoW8Ha37/Q+ngwZoLxr/PJr+/ebv2+2kfuus/jOrYx4OWjMM4j/Pg1234e60f7y8Zbv18No2NjJL+2+H7JxLtf90yuHfQDLBYE1iT0gPYHiAyYeAVhUKi0g/xykrzCRJjep+8brIAoMcm54WsIPyHda9655H3wmkkGMJ8ygRULjDAO/Bh5ePVicJ7/VO1POqXUF1hDcbccgWVfScW5Qvb1j7NU1Mg1gT+TceoEjo0NP6bCvBJu2/p0oiTIH2ld8sR9Hm2r+g622RyPY0bqOSiWPMb9alD3cr7Q9fT7R++L4u/G1WBb7uX7U8r06xkej+6h/Ms/03AyQWBNRk9gMqDFXriln/7iQWiPiwUD0lwfDuw0Ecb38Y/1lp8RWKeu7LeD3J6bS/hiU5MZDFMmsHSf+X2yt/fd7ngQI2ZishZMUN4ELxaK7HmsIrD8eolJ3fy6D8Wdbf/oZLlBZucI1Td+/W17pR+u7e91v9M+Ccd8n7mycyJB+zDeZ5G6/D8H/7u9Lsw3itkCa7i+Tx8cBvEQiihd98G8Y2I83xZ3bynj9k3t1/Q+HoHA0oTjLyewwnGW+Ezhj9n0uKtnyTiERxsE1gIJJmTYCEuLpyWPj6ms6gM78ebHoJt43QQ/QdRE4i1LJLB9y147cL5v03KJFk72I3df7IiYEZFh/+HPPhEYosuT6/7zXSeihoSZL+DlOnkFmvrawxNRg4IPYEUQWAsEgbV5EFjLAx8AQAkIrAWCwNo8CKzlgQ8AoAQEFkAFEFjLAx8AQAkILIAKILCWBz4AgBIQWAAVQGAtD3wAACUgsAAqgMBaHvgAAEpAYAFUAIG1PPABAJSAwAKoAAJreeADACgBgQVQAQTW8sAHAFDCiRZYGIZhGIZh67KjgBUsWBRLiyfGBz4AgDIQWAAVQGAtD3wAACUgsAAqgMBaHvgAAEpAYAFUAIG1PPABAJSAwAKoAAJreeADACgBgQVQAQTW8sAHAFACAgugAgis5YEPAKAEBBZABRBYywMfAEAJCCyACiCwlgc+AIASEFgAFUBgLQ98AAAlILAAKoDAWh5FPvj4QfPjZ75qfmc2x/jotb80p17/xmxpZN/3Dh6asr5sfvWZORDwsHnnhS+iY7LvL81Pbv53+9+43BzdvQCgGgisSRw2b21tNc/fMpsj3Nndas5sb3f22IVrzcfm2DQOmze3zjZv3NVbUt6pK4d6A44l8wfSvebd5x5v4+Opg/tmX56HV89uvP/ntUe3Zer4eFQoSY7fvv3FJGHT0iPGAtHTK7KGBJbeGq9LeD4A1AGBVRU90cSCSibI7e2dTjCNEwosOP7Mjac5omlxAuvTa82Lp3eb98zmcWWOD9oVqB8pITPDrHj66DUjkCKhJcLoewff6FWo7jotstyKV5/AivdpWrHl1WHc+lbOAGAMBFZFZCLsW62aN0kisB415saTrEqOrVxZEFhHw8o54g9fNqd+9tdJq9ZaRFmhJatI/7d57YehWMuvLH3TnqdfA37R/Mf+V8E1OetbodIrXF83l158MHOlHQCGQGBNIp5A9CtD+wpQT5Qjk0wwqehzX7h1uysnXOEKBVYwwd7YbUXcn67tdPdPJl91jj02b+UMVmV6POm+T/snjClfqMcCy38FHQr6XFyuRsn4sPX169nVxYtNMdeu0C9xTEuZ/rFEoPbGvC73lev7zctPnO59AMqxWnK0wsdstsi+3IqSfjVnBVDyDZQItYFXe60w+pkIo3iVKVeHPO1KmBWDM78bA4BhEFiTCCeQMLnfaz68eU/9d2zVyT+uy3ty+9XuKV7KdMl/WGDJJNLdXwk3mTg6YaeO++XK9pxJBVZj7kDKCYRYwMeCpSXqz6/fv9XFjH/NeDwOUyqwJEb9mAxET7KCpa/3x1RcXhDDqrxgDKjt/pjXZa0yBlZJju7VnU+fwLI8bK7/f5nVo3Yl7KvmuWfcKlQqxDKvA5VQaq8ZEGf2leb3Dv7aijFXphZnp36E0AIoBYE1iTDhy+QYP2GPT2ipwHKToSKYdIYFVjxZ+JN1MnG391p9ooVpFAusCP943P+BmLBk4kKuG7rHEKUCKxwfUbzHAisRXArVHl1GZqwopsd8/vopzE6OIoiUaJGVo9FvnbxXiN++7a1AWXHkndu/EmVXwKIVrHbl62sllL6MRJJbMYvL1K8nzUaLFVpD9weAIRBYk0iTtCR1eYqOn5R7E3kwiWTOrSKwdLlSr9hWmWBgOuUCK+07ezwRLCoG5Li/KiTn+NdaC4XOdDYqsEx7YpM4/6S5nX1wmR7z0b1nMMsHnjBKBcnACpYRZdbC1anwOv2tlF2V0gLIfoPlytYiSuogoil57QgAGwOBNYn+JC2TiRU86cTiCI9lyqsisPTvVSYTKKNMYKXx4B/vjSsVMy+dPqfjpFvxqcNGBZba3tl5O4hpR/zqU9DlTYv5zFibyHQf2Nd0+t+dmiOw9Ku6/tdxemXJ/HtW3aqXE1Hu3u0B81px+JuqTqi1K13mv3Ed/HIAYCUQWJPwk/S95p1L3mQQCB59XjzRyYQTvtbJJP1KAkuOZ18hwVopE1hhf1tRkRNYD69eDM5z1+WEyOpsVGCZ484fIeKrIOZVjMsK1bSYz4y1icxPjr7w8RlYwfJoxVYsaswKV/9KlC+w7KpWe6ClLTP4FsurixVYLW6/FWD6I3pEFsCqILAmESZpSfj2NUQusfvHxWJBlE36tQSWQs4fvj/UpkxghX0mMbW3992swLLiwlocQ/IHD/ZYyV+QrlVgKewYcedpgWjrLubO19fb/XLN9JjPjLWJbEZg6WviV4t6ZUteG37ZPPuyEzrha0LBCiy9ypUKMVO+uSYQXIHAsoRtkPN5zQiwGggsgAosLZ6Od3tWF01zWFVg/c/rf00+VM+Z/AWfL2b6xJa/P/2HP+XYF83/+4ucWLLo61OhpFe8/Dpp4y8IAWqAwAKoAAJrc8hq1SZeg0/1wc2P/p4RKcux77/ytWkpAMwBgQVQAQTW+ohf/23qG0NyBACUgMACqAACa3ngAwAoAYEFUAEE1vLABwBQAgILoAIIrOWBDwCgBAQWQAUQWMsDHwBACQgsgAogsJYHPgCAEhBYABVAYC0PfAAAJSCwACqAwFoe+AAASjjRAgvDMAzDMGxddhQcucACAAAAWBoILAAAAIDKILAAAAAAKoPAAgAAAKhK0/z/CIdNIs+GQ+4AAAAASUVORK5CYII=;" vertex="1" parent="1">
          <mxGeometry x="470" y="-20" width="450" height="316.5" as="geometry" />
        </mxCell>
        <mxCell id="RezDgbksQ6lx2EMex9-9-7" value="&lt;h1&gt;设备列表&lt;/h1&gt;&lt;p&gt;绑定的设备列表清单&lt;/p&gt;" style="text;html=1;strokeColor=none;fillColor=none;spacing=5;spacingTop=-20;whiteSpace=wrap;overflow=hidden;rounded=0;fontSize=8;" vertex="1" parent="1">
          <mxGeometry x="100" y="-20" width="190" height="120" as="geometry" />
        </mxCell>
      </root>
    </mxGraphModel>
  </diagram>
  <diagram id="RQqIQMfqH1qSkvMgK42u" name="信息发布">
    <mxGraphModel dx="1122" dy="1619" grid="1" gridSize="10" guides="1" tooltips="1" connect="1" arrows="1" fold="1" page="1" pageScale="1" pageWidth="827" pageHeight="1169" math="0" shadow="0">
      <root>
        <mxCell id="0" />
        <mxCell id="1" parent="0" />
        <mxCell id="9NAWJaIJpuJt2_yTO0WV-6" style="edgeStyle=orthogonalEdgeStyle;rounded=0;orthogonalLoop=1;jettySize=auto;html=1;entryX=0.391;entryY=0;entryDx=0;entryDy=0;entryPerimeter=0;fontSize=9;" edge="1" parent="1" source="UJhDUWCKWKoEuqxhhBKn-1" target="9NAWJaIJpuJt2_yTO0WV-1">
          <mxGeometry relative="1" as="geometry">
            <Array as="points">
              <mxPoint x="414" y="-10" />
            </Array>
          </mxGeometry>
        </mxCell>
        <mxCell id="UJhDUWCKWKoEuqxhhBKn-1" value="携带请求头" style="rounded=0;whiteSpace=wrap;html=1;" vertex="1" parent="1">
          <mxGeometry x="351" y="-80" width="126" height="20" as="geometry" />
        </mxCell>
        <mxCell id="9NAWJaIJpuJt2_yTO0WV-1" value="&lt;table style=&quot;-webkit-print-color-adjust: exact; margin: 10px 0px 15px; border-collapse: collapse; color: rgb(57, 56, 56); font-family: -apple-system, BlinkMacSystemFont, &amp;quot;Segoe UI&amp;quot;, Roboto, &amp;quot;Helvetica Neue&amp;quot;, Helvetica, &amp;quot;PingFang SC&amp;quot;, &amp;quot;Hiragino Sans GB&amp;quot;, &amp;quot;Microsoft YaHei&amp;quot;, SimSun, sans-serif; font-size: 14px; text-align: start;&quot;&gt;&lt;tbody style=&quot;-webkit-print-color-adjust: exact;&quot;&gt;&lt;tr style=&quot;-webkit-print-color-adjust: exact;&quot;&gt;&lt;td style=&quot;-webkit-print-color-adjust: exact; border: 1px solid rgb(221, 221, 221); padding: 3px 10px;&quot; align=&quot;left&quot;&gt;&lt;font style=&quot;font-size: 9px;&quot;&gt;Authorization&lt;/font&gt;&lt;/td&gt;&lt;td style=&quot;-webkit-print-color-adjust: exact; border: 1px solid rgb(221, 221, 221); padding: 3px 10px;&quot;&gt;&lt;font style=&quot;font-size: 10px;&quot;&gt;示例 bearer 704dc1bc-b05e-4ed5-a889-0261584919f6 ，&lt;strong style=&quot;-webkit-print-color-adjust: exact;&quot;&gt;bearer固定,后面紧随空格，然后token&lt;/strong&gt;&lt;/font&gt;&lt;/td&gt;&lt;/tr&gt;&lt;tr style=&quot;-webkit-print-color-adjust: exact;&quot;&gt;&lt;td style=&quot;-webkit-print-color-adjust: exact; border: 1px solid rgb(221, 221, 221); padding: 3px 10px;&quot; align=&quot;left&quot;&gt;&lt;font style=&quot;font-size: 9px;&quot;&gt;User-Id&lt;/font&gt;&lt;/td&gt;&lt;td style=&quot;-webkit-print-color-adjust: exact; border: 1px solid rgb(221, 221, 221); padding: 3px 10px;&quot;&gt;&lt;font style=&quot;font-size: 9px;&quot;&gt;客户端模式必须携带且设置为1&lt;/font&gt;&lt;/td&gt;&lt;/tr&gt;&lt;/tbody&gt;&lt;/table&gt;" style="shape=document;whiteSpace=wrap;html=1;boundedLbl=1;" vertex="1" parent="1">
          <mxGeometry x="230" y="-50" width="450" height="90" as="geometry" />
        </mxCell>
        <mxCell id="9NAWJaIJpuJt2_yTO0WV-7" style="edgeStyle=orthogonalEdgeStyle;rounded=0;orthogonalLoop=1;jettySize=auto;html=1;fontSize=9;" edge="1" parent="1" source="9NAWJaIJpuJt2_yTO0WV-5" target="9NAWJaIJpuJt2_yTO0WV-8">
          <mxGeometry relative="1" as="geometry">
            <mxPoint x="140" y="230" as="targetPoint" />
          </mxGeometry>
        </mxCell>
        <mxCell id="9NAWJaIJpuJt2_yTO0WV-9" style="edgeStyle=orthogonalEdgeStyle;rounded=0;orthogonalLoop=1;jettySize=auto;html=1;fontSize=9;exitX=0.5;exitY=1;exitDx=0;exitDy=0;" edge="1" parent="1" source="9NAWJaIJpuJt2_yTO0WV-5" target="9NAWJaIJpuJt2_yTO0WV-10">
          <mxGeometry relative="1" as="geometry">
            <mxPoint x="290" y="200" as="targetPoint" />
          </mxGeometry>
        </mxCell>
        <mxCell id="9NAWJaIJpuJt2_yTO0WV-11" style="edgeStyle=orthogonalEdgeStyle;rounded=0;orthogonalLoop=1;jettySize=auto;html=1;fontSize=9;" edge="1" parent="1">
          <mxGeometry relative="1" as="geometry">
            <mxPoint x="440" y="204" as="targetPoint" />
            <mxPoint x="220" y="134" as="sourcePoint" />
            <Array as="points">
              <mxPoint x="220" y="164" />
              <mxPoint x="440" y="164" />
            </Array>
          </mxGeometry>
        </mxCell>
        <mxCell id="9NAWJaIJpuJt2_yTO0WV-5" value="查询素材列表" style="rounded=1;whiteSpace=wrap;html=1;fontSize=9;" vertex="1" parent="1">
          <mxGeometry x="160" y="80" width="120" height="50" as="geometry" />
        </mxCell>
        <mxCell id="9NAWJaIJpuJt2_yTO0WV-8" value="素材查看详情" style="rounded=1;whiteSpace=wrap;html=1;fontSize=9;" vertex="1" parent="1">
          <mxGeometry x="80" y="200" width="120" height="60" as="geometry" />
        </mxCell>
        <mxCell id="9NAWJaIJpuJt2_yTO0WV-10" value="素材删除" style="rounded=1;whiteSpace=wrap;html=1;fontSize=9;" vertex="1" parent="1">
          <mxGeometry x="230" y="200" width="120" height="60" as="geometry" />
        </mxCell>
        <mxCell id="9NAWJaIJpuJt2_yTO0WV-13" style="edgeStyle=orthogonalEdgeStyle;rounded=0;orthogonalLoop=1;jettySize=auto;html=1;fontSize=9;" edge="1" parent="1" source="waK7jHF65Sw4znNXJNhh-1" target="9NAWJaIJpuJt2_yTO0WV-14">
          <mxGeometry relative="1" as="geometry">
            <mxPoint x="390" y="320" as="targetPoint" />
          </mxGeometry>
        </mxCell>
        <mxCell id="9NAWJaIJpuJt2_yTO0WV-15" style="edgeStyle=orthogonalEdgeStyle;rounded=0;orthogonalLoop=1;jettySize=auto;html=1;fontSize=9;exitX=1;exitY=0.5;exitDx=0;exitDy=0;" edge="1" parent="1" source="waK7jHF65Sw4znNXJNhh-1" target="9NAWJaIJpuJt2_yTO0WV-16">
          <mxGeometry relative="1" as="geometry">
            <mxPoint x="520" y="300" as="targetPoint" />
          </mxGeometry>
        </mxCell>
        <mxCell id="waK7jHF65Sw4znNXJNhh-4" value="大于" style="edgeLabel;html=1;align=center;verticalAlign=middle;resizable=0;points=[];fontSize=8;" vertex="1" connectable="0" parent="9NAWJaIJpuJt2_yTO0WV-15">
          <mxGeometry x="0.4727" y="-1" relative="1" as="geometry">
            <mxPoint as="offset" />
          </mxGeometry>
        </mxCell>
        <mxCell id="waK7jHF65Sw4znNXJNhh-6" style="edgeStyle=orthogonalEdgeStyle;rounded=0;orthogonalLoop=1;jettySize=auto;html=1;fontSize=8;" edge="1" parent="1" source="9NAWJaIJpuJt2_yTO0WV-12" target="waK7jHF65Sw4znNXJNhh-1">
          <mxGeometry relative="1" as="geometry" />
        </mxCell>
        <mxCell id="9NAWJaIJpuJt2_yTO0WV-12" value="素材上传" style="rounded=1;whiteSpace=wrap;html=1;fontSize=9;" vertex="1" parent="1">
          <mxGeometry x="380" y="200" width="120" height="60" as="geometry" />
        </mxCell>
        <mxCell id="9NAWJaIJpuJt2_yTO0WV-14" value="普通上传" style="rounded=1;whiteSpace=wrap;html=1;fontSize=9;" vertex="1" parent="1">
          <mxGeometry x="270" y="422" width="120" height="60" as="geometry" />
        </mxCell>
        <mxCell id="9NAWJaIJpuJt2_yTO0WV-30" value="" style="edgeStyle=orthogonalEdgeStyle;rounded=0;orthogonalLoop=1;jettySize=auto;html=1;fontSize=9;" edge="1" parent="1" source="9NAWJaIJpuJt2_yTO0WV-16" target="9NAWJaIJpuJt2_yTO0WV-29">
          <mxGeometry relative="1" as="geometry" />
        </mxCell>
        <mxCell id="9NAWJaIJpuJt2_yTO0WV-16" value="分片上传" style="rounded=1;whiteSpace=wrap;html=1;fontSize=9;" vertex="1" parent="1">
          <mxGeometry x="480" y="422" width="120" height="60" as="geometry" />
        </mxCell>
        <mxCell id="9NAWJaIJpuJt2_yTO0WV-17" value="&lt;h1&gt;素材管理&lt;/h1&gt;" style="text;html=1;strokeColor=none;fillColor=none;spacing=5;spacingTop=-20;whiteSpace=wrap;overflow=hidden;rounded=0;fontSize=9;" vertex="1" parent="1">
          <mxGeometry x="100" y="-120" width="100" height="40" as="geometry" />
        </mxCell>
        <mxCell id="9NAWJaIJpuJt2_yTO0WV-18" style="edgeStyle=orthogonalEdgeStyle;rounded=0;orthogonalLoop=1;jettySize=auto;html=1;fontSize=9;exitX=0.5;exitY=1;exitDx=0;exitDy=0;" edge="1" parent="1" source="9NAWJaIJpuJt2_yTO0WV-21">
          <mxGeometry relative="1" as="geometry">
            <mxPoint x="110" y="850" as="targetPoint" />
            <mxPoint x="190" y="780" as="sourcePoint" />
            <Array as="points">
              <mxPoint x="200" y="780" />
              <mxPoint x="110" y="780" />
            </Array>
          </mxGeometry>
        </mxCell>
        <mxCell id="9NAWJaIJpuJt2_yTO0WV-19" style="edgeStyle=orthogonalEdgeStyle;rounded=0;orthogonalLoop=1;jettySize=auto;html=1;fontSize=9;exitX=0.5;exitY=1;exitDx=0;exitDy=0;" edge="1" parent="1" source="9NAWJaIJpuJt2_yTO0WV-21" target="9NAWJaIJpuJt2_yTO0WV-23">
          <mxGeometry relative="1" as="geometry">
            <mxPoint x="270" y="810" as="targetPoint" />
            <mxPoint x="200" y="740" as="sourcePoint" />
            <Array as="points">
              <mxPoint x="200" y="780" />
              <mxPoint x="270" y="780" />
            </Array>
          </mxGeometry>
        </mxCell>
        <mxCell id="9NAWJaIJpuJt2_yTO0WV-20" style="edgeStyle=orthogonalEdgeStyle;rounded=0;orthogonalLoop=1;jettySize=auto;html=1;fontSize=9;exitX=0.5;exitY=1;exitDx=0;exitDy=0;" edge="1" parent="1" source="9NAWJaIJpuJt2_yTO0WV-21" target="9NAWJaIJpuJt2_yTO0WV-26">
          <mxGeometry relative="1" as="geometry">
            <mxPoint x="390" y="820" as="targetPoint" />
            <mxPoint x="260" y="715" as="sourcePoint" />
            <Array as="points">
              <mxPoint x="200" y="780" />
              <mxPoint x="420" y="780" />
            </Array>
          </mxGeometry>
        </mxCell>
        <mxCell id="9NAWJaIJpuJt2_yTO0WV-33" value="" style="edgeStyle=orthogonalEdgeStyle;rounded=0;orthogonalLoop=1;jettySize=auto;html=1;fontSize=9;exitX=0.5;exitY=1;exitDx=0;exitDy=0;" edge="1" parent="1" source="9NAWJaIJpuJt2_yTO0WV-21" target="9NAWJaIJpuJt2_yTO0WV-34">
          <mxGeometry relative="1" as="geometry">
            <Array as="points">
              <mxPoint x="200" y="780" />
              <mxPoint x="570" y="780" />
            </Array>
          </mxGeometry>
        </mxCell>
        <mxCell id="9NAWJaIJpuJt2_yTO0WV-21" value="查询设备列表" style="rounded=1;whiteSpace=wrap;html=1;fontSize=9;" vertex="1" parent="1">
          <mxGeometry x="140" y="672" width="120" height="50" as="geometry" />
        </mxCell>
        <mxCell id="9NAWJaIJpuJt2_yTO0WV-22" value="查看详情" style="rounded=1;whiteSpace=wrap;html=1;fontSize=9;" vertex="1" parent="1">
          <mxGeometry x="50" y="805" width="120" height="60" as="geometry" />
        </mxCell>
        <mxCell id="9NAWJaIJpuJt2_yTO0WV-23" value="设备信息删除" style="rounded=1;whiteSpace=wrap;html=1;fontSize=9;" vertex="1" parent="1">
          <mxGeometry x="210" y="810" width="120" height="60" as="geometry" />
        </mxCell>
        <mxCell id="9NAWJaIJpuJt2_yTO0WV-26" value="设备信息修改" style="rounded=1;whiteSpace=wrap;html=1;fontSize=9;" vertex="1" parent="1">
          <mxGeometry x="360" y="810" width="120" height="60" as="geometry" />
        </mxCell>
        <mxCell id="9NAWJaIJpuJt2_yTO0WV-29" value="分片合并" style="rounded=1;whiteSpace=wrap;html=1;fontSize=9;" vertex="1" parent="1">
          <mxGeometry x="480" y="532" width="120" height="60" as="geometry" />
        </mxCell>
        <mxCell id="9NAWJaIJpuJt2_yTO0WV-31" value="&lt;span style=&quot;color: rgb(57, 56, 56); font-family: -apple-system, BlinkMacSystemFont, &amp;quot;Segoe UI&amp;quot;, Roboto, &amp;quot;Helvetica Neue&amp;quot;, Helvetica, &amp;quot;PingFang SC&amp;quot;, &amp;quot;Hiragino Sans GB&amp;quot;, &amp;quot;Microsoft YaHei&amp;quot;, SimSun, sans-serif; font-size: 14px; text-align: start;&quot;&gt;支持：图片文件jpg, png, bmp, jpeg, gif,&lt;/span&gt;&lt;br style=&quot;-webkit-print-color-adjust: exact; color: rgb(57, 56, 56); font-family: -apple-system, BlinkMacSystemFont, &amp;quot;Segoe UI&amp;quot;, Roboto, &amp;quot;Helvetica Neue&amp;quot;, Helvetica, &amp;quot;PingFang SC&amp;quot;, &amp;quot;Hiragino Sans GB&amp;quot;, &amp;quot;Microsoft YaHei&amp;quot;, SimSun, sans-serif; font-size: 14px; text-align: start;&quot;&gt;&lt;span style=&quot;color: rgb(57, 56, 56); font-family: -apple-system, BlinkMacSystemFont, &amp;quot;Segoe UI&amp;quot;, Roboto, &amp;quot;Helvetica Neue&amp;quot;, Helvetica, &amp;quot;PingFang SC&amp;quot;, &amp;quot;Hiragino Sans GB&amp;quot;, &amp;quot;Microsoft YaHei&amp;quot;, SimSun, sans-serif; font-size: 14px; text-align: start;&quot;&gt;视频文件mp4, avi, mov, asf, mkv, wmv，&lt;/span&gt;&lt;br style=&quot;-webkit-print-color-adjust: exact; color: rgb(57, 56, 56); font-family: -apple-system, BlinkMacSystemFont, &amp;quot;Segoe UI&amp;quot;, Roboto, &amp;quot;Helvetica Neue&amp;quot;, Helvetica, &amp;quot;PingFang SC&amp;quot;, &amp;quot;Hiragino Sans GB&amp;quot;, &amp;quot;Microsoft YaHei&amp;quot;, SimSun, sans-serif; font-size: 14px; text-align: start;&quot;&gt;&lt;span style=&quot;color: rgb(57, 56, 56); font-family: -apple-system, BlinkMacSystemFont, &amp;quot;Segoe UI&amp;quot;, Roboto, &amp;quot;Helvetica Neue&amp;quot;, Helvetica, &amp;quot;PingFang SC&amp;quot;, &amp;quot;Hiragino Sans GB&amp;quot;, &amp;quot;Microsoft YaHei&amp;quot;, SimSun, sans-serif; font-size: 14px; text-align: start;&quot;&gt;音频文件mp3, wav, wma，&lt;/span&gt;&lt;br style=&quot;-webkit-print-color-adjust: exact; color: rgb(57, 56, 56); font-family: -apple-system, BlinkMacSystemFont, &amp;quot;Segoe UI&amp;quot;, Roboto, &amp;quot;Helvetica Neue&amp;quot;, Helvetica, &amp;quot;PingFang SC&amp;quot;, &amp;quot;Hiragino Sans GB&amp;quot;, &amp;quot;Microsoft YaHei&amp;quot;, SimSun, sans-serif; font-size: 14px; text-align: start;&quot;&gt;&lt;span style=&quot;color: rgb(57, 56, 56); font-family: -apple-system, BlinkMacSystemFont, &amp;quot;Segoe UI&amp;quot;, Roboto, &amp;quot;Helvetica Neue&amp;quot;, Helvetica, &amp;quot;PingFang SC&amp;quot;, &amp;quot;Hiragino Sans GB&amp;quot;, &amp;quot;Microsoft YaHei&amp;quot;, SimSun, sans-serif; font-size: 14px; text-align: start;&quot;&gt;文档PDF&lt;/span&gt;" style="text;html=1;strokeColor=none;fillColor=none;align=center;verticalAlign=middle;whiteSpace=wrap;rounded=0;fontSize=9;" vertex="1" parent="1">
          <mxGeometry x="520" y="205" width="280" height="50" as="geometry" />
        </mxCell>
        <mxCell id="9NAWJaIJpuJt2_yTO0WV-32" value="&lt;h1&gt;设备管理&lt;/h1&gt;" style="text;html=1;strokeColor=none;fillColor=none;spacing=5;spacingTop=-20;whiteSpace=wrap;overflow=hidden;rounded=0;fontSize=9;" vertex="1" parent="1">
          <mxGeometry x="60" y="610" width="90" height="30" as="geometry" />
        </mxCell>
        <mxCell id="9NAWJaIJpuJt2_yTO0WV-34" value="操作设备" style="rounded=1;whiteSpace=wrap;html=1;fontSize=9;" vertex="1" parent="1">
          <mxGeometry x="510" y="810" width="120" height="60" as="geometry" />
        </mxCell>
        <mxCell id="9NAWJaIJpuJt2_yTO0WV-35" value="&lt;font style=&quot;font-size: 8px;&quot;&gt;&lt;span style=&quot;color: rgb(57, 56, 56); font-family: -apple-system, BlinkMacSystemFont, &amp;quot;Segoe UI&amp;quot;, Roboto, &amp;quot;Helvetica Neue&amp;quot;, Helvetica, &amp;quot;PingFang SC&amp;quot;, &amp;quot;Hiragino Sans GB&amp;quot;, &amp;quot;Microsoft YaHei&amp;quot;, SimSun, sans-serif; text-align: start;&quot;&gt;操作字段：&lt;/span&gt;&lt;br style=&quot;-webkit-print-color-adjust: exact; color: rgb(57, 56, 56); font-family: -apple-system, BlinkMacSystemFont, &amp;quot;Segoe UI&amp;quot;, Roboto, &amp;quot;Helvetica Neue&amp;quot;, Helvetica, &amp;quot;PingFang SC&amp;quot;, &amp;quot;Hiragino Sans GB&amp;quot;, &amp;quot;Microsoft YaHei&amp;quot;, SimSun, sans-serif; text-align: start;&quot;&gt;&lt;span style=&quot;color: rgb(57, 56, 56); font-family: -apple-system, BlinkMacSystemFont, &amp;quot;Segoe UI&amp;quot;, Roboto, &amp;quot;Helvetica Neue&amp;quot;, Helvetica, &amp;quot;PingFang SC&amp;quot;, &amp;quot;Hiragino Sans GB&amp;quot;, &amp;quot;Microsoft YaHei&amp;quot;, SimSun, sans-serif; text-align: start;&quot;&gt;1=开屏，&lt;/span&gt;&lt;br style=&quot;-webkit-print-color-adjust: exact; color: rgb(57, 56, 56); font-family: -apple-system, BlinkMacSystemFont, &amp;quot;Segoe UI&amp;quot;, Roboto, &amp;quot;Helvetica Neue&amp;quot;, Helvetica, &amp;quot;PingFang SC&amp;quot;, &amp;quot;Hiragino Sans GB&amp;quot;, &amp;quot;Microsoft YaHei&amp;quot;, SimSun, sans-serif; text-align: start;&quot;&gt;&lt;span style=&quot;color: rgb(57, 56, 56); font-family: -apple-system, BlinkMacSystemFont, &amp;quot;Segoe UI&amp;quot;, Roboto, &amp;quot;Helvetica Neue&amp;quot;, Helvetica, &amp;quot;PingFang SC&amp;quot;, &amp;quot;Hiragino Sans GB&amp;quot;, &amp;quot;Microsoft YaHei&amp;quot;, SimSun, sans-serif; text-align: start;&quot;&gt;2=关屏，&lt;/span&gt;&lt;br style=&quot;-webkit-print-color-adjust: exact; color: rgb(57, 56, 56); font-family: -apple-system, BlinkMacSystemFont, &amp;quot;Segoe UI&amp;quot;, Roboto, &amp;quot;Helvetica Neue&amp;quot;, Helvetica, &amp;quot;PingFang SC&amp;quot;, &amp;quot;Hiragino Sans GB&amp;quot;, &amp;quot;Microsoft YaHei&amp;quot;, SimSun, sans-serif; text-align: start;&quot;&gt;&lt;span style=&quot;color: rgb(57, 56, 56); font-family: -apple-system, BlinkMacSystemFont, &amp;quot;Segoe UI&amp;quot;, Roboto, &amp;quot;Helvetica Neue&amp;quot;, Helvetica, &amp;quot;PingFang SC&amp;quot;, &amp;quot;Hiragino Sans GB&amp;quot;, &amp;quot;Microsoft YaHei&amp;quot;, SimSun, sans-serif; text-align: start;&quot;&gt;3=关机，&lt;/span&gt;&lt;br style=&quot;-webkit-print-color-adjust: exact; color: rgb(57, 56, 56); font-family: -apple-system, BlinkMacSystemFont, &amp;quot;Segoe UI&amp;quot;, Roboto, &amp;quot;Helvetica Neue&amp;quot;, Helvetica, &amp;quot;PingFang SC&amp;quot;, &amp;quot;Hiragino Sans GB&amp;quot;, &amp;quot;Microsoft YaHei&amp;quot;, SimSun, sans-serif; text-align: start;&quot;&gt;&lt;span style=&quot;color: rgb(57, 56, 56); font-family: -apple-system, BlinkMacSystemFont, &amp;quot;Segoe UI&amp;quot;, Roboto, &amp;quot;Helvetica Neue&amp;quot;, Helvetica, &amp;quot;PingFang SC&amp;quot;, &amp;quot;Hiragino Sans GB&amp;quot;, &amp;quot;Microsoft YaHei&amp;quot;, SimSun, sans-serif; text-align: start;&quot;&gt;4=重启终端，&lt;/span&gt;&lt;br style=&quot;-webkit-print-color-adjust: exact; color: rgb(57, 56, 56); font-family: -apple-system, BlinkMacSystemFont, &amp;quot;Segoe UI&amp;quot;, Roboto, &amp;quot;Helvetica Neue&amp;quot;, Helvetica, &amp;quot;PingFang SC&amp;quot;, &amp;quot;Hiragino Sans GB&amp;quot;, &amp;quot;Microsoft YaHei&amp;quot;, SimSun, sans-serif; text-align: start;&quot;&gt;&lt;span style=&quot;color: rgb(57, 56, 56); font-family: -apple-system, BlinkMacSystemFont, &amp;quot;Segoe UI&amp;quot;, Roboto, &amp;quot;Helvetica Neue&amp;quot;, Helvetica, &amp;quot;PingFang SC&amp;quot;, &amp;quot;Hiragino Sans GB&amp;quot;, &amp;quot;Microsoft YaHei&amp;quot;, SimSun, sans-serif; text-align: start;&quot;&gt;5=复位,&lt;/span&gt;&lt;br style=&quot;-webkit-print-color-adjust: exact; color: rgb(57, 56, 56); font-family: -apple-system, BlinkMacSystemFont, &amp;quot;Segoe UI&amp;quot;, Roboto, &amp;quot;Helvetica Neue&amp;quot;, Helvetica, &amp;quot;PingFang SC&amp;quot;, &amp;quot;Hiragino Sans GB&amp;quot;, &amp;quot;Microsoft YaHei&amp;quot;, SimSun, sans-serif; text-align: start;&quot;&gt;&lt;span style=&quot;color: rgb(57, 56, 56); font-family: -apple-system, BlinkMacSystemFont, &amp;quot;Segoe UI&amp;quot;, Roboto, &amp;quot;Helvetica Neue&amp;quot;, Helvetica, &amp;quot;PingFang SC&amp;quot;, &amp;quot;Hiragino Sans GB&amp;quot;, &amp;quot;Microsoft YaHei&amp;quot;, SimSun, sans-serif; text-align: start;&quot;&gt;7=一键截图指令&lt;/span&gt;&lt;/font&gt;" style="text;html=1;strokeColor=none;fillColor=none;align=center;verticalAlign=middle;whiteSpace=wrap;rounded=0;fontSize=9;" vertex="1" parent="1">
          <mxGeometry x="610" y="780" width="240" height="110" as="geometry" />
        </mxCell>
        <mxCell id="9NAWJaIJpuJt2_yTO0WV-42" value="查询普通计划列表" style="rounded=1;whiteSpace=wrap;html=1;fontSize=9;" vertex="1" parent="1">
          <mxGeometry x="45" y="1290" width="120" height="60" as="geometry" />
        </mxCell>
        <mxCell id="9NAWJaIJpuJt2_yTO0WV-43" value="查询插播计划列表" style="rounded=1;whiteSpace=wrap;html=1;fontSize=9;" vertex="1" parent="1">
          <mxGeometry x="190" y="1290" width="120" height="60" as="geometry" />
        </mxCell>
        <mxCell id="9NAWJaIJpuJt2_yTO0WV-45" value="&lt;h1&gt;播放计划管理&lt;/h1&gt;" style="text;html=1;strokeColor=none;fillColor=none;spacing=5;spacingTop=-20;whiteSpace=wrap;overflow=hidden;rounded=0;fontSize=9;" vertex="1" parent="1">
          <mxGeometry x="40" y="1200" width="130" height="20" as="geometry" />
        </mxCell>
        <mxCell id="9NAWJaIJpuJt2_yTO0WV-46" value="查询组织计划列表" style="rounded=1;whiteSpace=wrap;html=1;fontSize=9;" vertex="1" parent="1">
          <mxGeometry x="340" y="1290" width="120" height="60" as="geometry" />
        </mxCell>
        <mxCell id="waK7jHF65Sw4znNXJNhh-1" value="素材大小10M" style="rhombus;whiteSpace=wrap;html=1;fontSize=8;" vertex="1" parent="1">
          <mxGeometry x="400" y="290" width="80" height="80" as="geometry" />
        </mxCell>
        <mxCell id="waK7jHF65Sw4znNXJNhh-3" value="小于" style="text;html=1;align=center;verticalAlign=middle;resizable=0;points=[];autosize=1;strokeColor=none;fillColor=none;fontSize=8;" vertex="1" parent="1">
          <mxGeometry x="340" y="300" width="40" height="20" as="geometry" />
        </mxCell>
        <mxCell id="paLz09photunsHIO073a-1" value="&lt;h1&gt;信息发布流程&lt;/h1&gt;&lt;p&gt;&lt;span style=&quot;color: rgb(51, 51, 51); font-family: &amp;quot;Microsoft YaHei&amp;quot;, 微软雅黑, 宋体, helvetica, &amp;quot;Hiragino Sans GB&amp;quot;; font-size: 14px; background-color: rgb(255, 255, 255);&quot;&gt;1. 上传素材&lt;/span&gt;&lt;/p&gt;&lt;p&gt;&lt;span style=&quot;color: rgb(51, 51, 51); font-family: &amp;quot;Microsoft YaHei&amp;quot;, 微软雅黑, 宋体, helvetica, &amp;quot;Hiragino Sans GB&amp;quot;; font-size: 14px; background-color: rgb(255, 255, 255);&quot;&gt;2.&amp;nbsp;&lt;/span&gt;&lt;span style=&quot;background-color: rgb(255, 255, 255); color: rgb(51, 51, 51); font-family: &amp;quot;Microsoft YaHei&amp;quot;, 微软雅黑, 宋体, helvetica, &amp;quot;Hiragino Sans GB&amp;quot;; font-size: 14px;&quot;&gt;制作节目&lt;/span&gt;&lt;/p&gt;&lt;p&gt;&lt;span style=&quot;background-color: rgb(255, 255, 255); color: rgb(51, 51, 51); font-family: &amp;quot;Microsoft YaHei&amp;quot;, 微软雅黑, 宋体, helvetica, &amp;quot;Hiragino Sans GB&amp;quot;; font-size: 14px;&quot;&gt;3. 生成计划&lt;/span&gt;&lt;/p&gt;&lt;p&gt;&lt;span style=&quot;background-color: rgb(255, 255, 255); color: rgb(51, 51, 51); font-family: &amp;quot;Microsoft YaHei&amp;quot;, 微软雅黑, 宋体, helvetica, &amp;quot;Hiragino Sans GB&amp;quot;; font-size: 14px;&quot;&gt;4. 下发设备&lt;/span&gt;&lt;/p&gt;" style="text;html=1;strokeColor=none;fillColor=none;spacing=5;spacingTop=-20;whiteSpace=wrap;overflow=hidden;rounded=0;fontSize=8;" vertex="1" parent="1">
          <mxGeometry x="340" y="-290" width="190" height="120" as="geometry" />
        </mxCell>
        <mxCell id="paLz09photunsHIO073a-10" style="edgeStyle=orthogonalEdgeStyle;rounded=0;orthogonalLoop=1;jettySize=auto;html=1;entryX=0.542;entryY=0.167;entryDx=0;entryDy=0;entryPerimeter=0;fontSize=8;" edge="1" parent="1" source="paLz09photunsHIO073a-6" target="paLz09photunsHIO073a-7">
          <mxGeometry relative="1" as="geometry" />
        </mxCell>
        <mxCell id="paLz09photunsHIO073a-11" style="edgeStyle=orthogonalEdgeStyle;rounded=0;orthogonalLoop=1;jettySize=auto;html=1;fontSize=8;" edge="1" parent="1" source="paLz09photunsHIO073a-6" target="paLz09photunsHIO073a-9">
          <mxGeometry relative="1" as="geometry">
            <Array as="points">
              <mxPoint x="105" y="1080" />
              <mxPoint x="270" y="1080" />
            </Array>
          </mxGeometry>
        </mxCell>
        <mxCell id="paLz09photunsHIO073a-6" value="查询节目列表" style="rounded=1;whiteSpace=wrap;html=1;fontSize=9;" vertex="1" parent="1">
          <mxGeometry x="45" y="990" width="120" height="60" as="geometry" />
        </mxCell>
        <mxCell id="paLz09photunsHIO073a-7" value="查询节目详情" style="rounded=1;whiteSpace=wrap;html=1;fontSize=9;" vertex="1" parent="1">
          <mxGeometry x="40" y="1100" width="120" height="60" as="geometry" />
        </mxCell>
        <mxCell id="paLz09photunsHIO073a-8" value="&lt;h1&gt;节目管理&lt;/h1&gt;" style="text;html=1;strokeColor=none;fillColor=none;spacing=5;spacingTop=-20;whiteSpace=wrap;overflow=hidden;rounded=0;fontSize=9;" vertex="1" parent="1">
          <mxGeometry x="40" y="940" width="130" height="20" as="geometry" />
        </mxCell>
        <mxCell id="paLz09photunsHIO073a-9" value="删除节目" style="rounded=1;whiteSpace=wrap;html=1;fontSize=9;" vertex="1" parent="1">
          <mxGeometry x="210" y="1100" width="120" height="60" as="geometry" />
        </mxCell>
      </root>
    </mxGraphModel>
  </diagram>
  <diagram id="Ndi-sdCjmzWfTIDiYESF" name="视频监控">
    <mxGraphModel dx="1122" dy="1619" grid="1" gridSize="10" guides="1" tooltips="1" connect="1" arrows="1" fold="1" page="1" pageScale="1" pageWidth="827" pageHeight="1169" math="0" shadow="0">
      <root>
        <mxCell id="0" />
        <mxCell id="1" parent="0" />
        <mxCell id="qtvhUcdKkBp74vXYSqo--4" style="edgeStyle=orthogonalEdgeStyle;rounded=0;orthogonalLoop=1;jettySize=auto;html=1;fontSize=8;" edge="1" parent="1" source="qtvhUcdKkBp74vXYSqo--2">
          <mxGeometry relative="1" as="geometry">
            <mxPoint x="400" y="98.5" as="targetPoint" />
          </mxGeometry>
        </mxCell>
        <mxCell id="qtvhUcdKkBp74vXYSqo--9" value="" style="edgeStyle=orthogonalEdgeStyle;rounded=0;orthogonalLoop=1;jettySize=auto;html=1;fontSize=8;" edge="1" parent="1" source="qtvhUcdKkBp74vXYSqo--2" target="qtvhUcdKkBp74vXYSqo--8">
          <mxGeometry relative="1" as="geometry" />
        </mxCell>
        <mxCell id="qtvhUcdKkBp74vXYSqo--2" value="设备列表中筛选设备" style="rounded=1;whiteSpace=wrap;html=1;fontSize=8;" vertex="1" parent="1">
          <mxGeometry x="160" y="57" width="120" height="83" as="geometry" />
        </mxCell>
        <mxCell id="qtvhUcdKkBp74vXYSqo--8" value="设备大类：编码设备&lt;br&gt;设备小类：1、2、3、5..." style="rhombus;whiteSpace=wrap;html=1;fontSize=8;rounded=1;" vertex="1" parent="1">
          <mxGeometry x="125" y="200" width="190" height="68.5" as="geometry" />
        </mxCell>
        <mxCell id="qtvhUcdKkBp74vXYSqo--11" value="" style="shape=image;verticalLabelPosition=bottom;labelBackgroundColor=default;verticalAlign=top;aspect=fixed;imageAspect=0;image=data:image/png,iVBORw0KGgoAAAANSUhEUgAAAqEAAAIACAYAAACy4rUVAAAgAElEQVR4nOzde3xT9eH/8XcotLh52YANymaFOnBa2UZVIMFyKRUVKDhxG0xLQbkoU1IYfgdIQUAFvz8Eog7loqVcJpvDWQIMlUttvyZStJ1iveBIoWxAN4puYwrRkt8fSXNrCuXSk5K+no8HD5uTc/nkJJ6887kd0/Hjxz0CAAAADNSyZcuW0S4DAAAAmhlCKAAAAAzX0mQyRbsMAAAAaGYIoQAAADAcIRQAAACGaxHtAgAAAKD5IYQCAADAcIRQAAAAGI4QCgAAAMMRQgEAAGA4QigAAAAMRwgFAACA4QihAAAAMBwhFAAAAIYjhAIAAMBwhFAAAAAYjhAKAAAAwxFCAQAAYDhCKAAAAAxHCAUAAIDhCKEAAAAwHCEUAAAAhiOEAgAAwHAtDT3a8b16zSn1vaWrWl/ofX+4UcvfOix3u87qf3M/pXwn/gLt2K1/7nlPB780SZIuu+ZGdbmi4Vv/9/Pj+ua3Lg1acki7lm3Uey1M+vc1mZrap2PgqZrj+nt1vL733QtVdgAAgKbJsBBa85fnNTknT++cbK32p/6kP93axv9cpS1VI9Yn1L+tRmqxc5Is9a1wcKNyH3hM291xOnb1aPXq21v//dx9+vJ841Jd3qCs9x+Vr7xfM0q8K/dd7tT8bg3ZTjq1+2k9+OAfdXT8Iq0Yc6M6tJCkz/TJsuValZAgZ9bNgRBac0iOJ3I0eecVuuu5pXr4mlYNOwgAAMBFyLAQGvfd7+kKj0eSW39/8nGt+slTGt3e+9yJGtO57/jgRuXe4w2gktRm3ypNGrzqjJsl5m7WhkFtzrjeuTuuvxbv0oEWX+nEyoc0qOiXWrD4IQ2MdMijDr1ofVgrXacUpypt2/6exl9zo86iwhUAAOCiYlxzfMdMzcvdpbdyt+vElw79b84y/XD1BPVqdUiH93okSV9dMlDWJ4fqOo/38cE/TdSThXH17vLrPXma8tDzescXQE3tu6pLPbmyxReH9PGB4xf2NZ3Wpeo6ZZ3+lPKYcmbZ9cneP+rxjf3Vd3R44K5W6eJfa6VLkjqp12OLtGhAooHlBAAAMJ6xfUIzpmnhzu0aV9ZPv553j3q1krT/Lb1S1kpqIb1zU28NuOkG1Uawds6vJXkD5pceSbX5raZaH+fN0uSVpfqXKTC26oS7o9JmzNR9P/hmyGG/2rtRS2c+po99+zqa8WvlpUdIqzVunVS8EurPvXW53VJ8aLu+e99ufVDtK+y3b9MDoyp01wc9lHfdCZWX7NXf4nwHOPy+Sku+VFz6BPUv+4P+PvJ+3XPZ31Va8ndJZ9//FAAA4GJh8nh81Y5G+eyojlzRzts/8sv9eu2RuzXHeUqSFPebV1R8R6AWMFJf0W/NeEV/il+i2x8t0glJJ7r+Us9M6aydD8/Vlv/ESYrXd+54SLPuHarr//uOCp55TM87PtMJSdKlSpy0RC/+PEVXRAqaZTalT3xFrbpadGPWvcrN6KLWqlahdWBYn9DjOrhlrda+8kcVlN8o62sLNPLywG7O1Me1oc6m/ykAAMDFxJia0C+P678nfX+bWuvSL9zSpdLh9TP9AfTzTqP14uDQZugOP+ij1trlC5CSFC/z1YlKuO5JvXoyV9bqYZqf7R3w0/uVrrrx8fs1t/BL/fPVp/TQq0+FFqHnBD3zyGjd/J36i3nknR06IbdO7C3Ux+6HTzOC/1K1+vufZS//r1roTS3dcVgj76AJHQAAoKEMCaGVy/uE1AyW9p6hioWZShzzotb/+27dVZCknP+919s8HyR+8BIVdN6tT4/XtsO3Vpsu3r8uHzpPK44f17GP39H2j99V+a63tGP3l/WW4ZJd6/TMbz7RW+bO+ma7TrJ8r42k1ro05Xp1/aYkfSrHxoOSEuTR9brlJ6cftNTBcoc6vbBM+00mfb7mNZUNHa3uvp4BSdZSOaxBK9cc18HNNj222K49J8L7hF6q5EF3KXPYUN2Rknh2XQEAAAAuUsb2CQ13fK/ea3WtLObvSFtf1PLTrOpRW3X/5V3q1Oq49i4ao/tf/ltQDWmoVp366fZ7eqtb+f/p9zsK9dd/mSQd18GPCnXwo0JJ0u8keWTWePsibwjd/xe9/g9v39Qj192q4Ok7I0pJ171dn9GsTxN02aE8rS29W91vDErRNW59/rf3tXvj7/TbPzn1jy8lyaTjP+mm/qXvaXeLFvrqW5ep3Wf/kWvLKtm2rNKiS9rqJ8Mn6P47blX37zFXKAAAiF2GhNDLfjReo79xXPs3v6zCqqCbNP23QrvztqqkZZxKzrAPj8yK/+ld6vHNS9X11kHq8AdvLaTkHRVvvvlWWcw36oYbuuqq2nb0wUM0+H8kHfxE73+0R+/85V0Vf7BHBz6t1glJb//il9rZzrtq9a4Cvd/CW7bj/X+s6874qq5Sz8yfSIs+kuTWov97T4/feKO3Cf+QXb+5Y56K4wLVmjWXtFXXcQv025+b9OpNWdqdkKB3MhfLM/bb2rdxnRav3KDSf1Vrz9on9Ku1T8jdabSeXT2hTu0wAABALDAkhH67//0a379ahR+8pMKqoBq+uMv07ZRrdM2pz1T5r7a6sm3dbT/fv9dXixgkZage/3/X6/0tv9L/fnSturSRjn74mjZ++Jo2vnCGwrRsq6Rr2+onD/xWW398qa/f5wGVbf5QUoKkjnr4pi4Nel2X9bpdN50q1+4WLdTz93/Un+690TtAqWOmJo9bqeIX/6GaS7qq99gJun+YxdfsX61eC+arg8mkLzt2kOLb6uq7HtazP7Wq+p2XtXxFnuzl/9WJwekEUAAAELOi2xzfrp8m5/5bS2b/P5V841Y9sfQh9QweDfRJnsaM+lj/aNFCpbcO1Z3tap9oq85pbRVX+rU8hXu1t+rsD53YOuiOSftL9MdPvE3x/+mYqVsalkGlK3tryHXztfvjhDoDlDrcZdOSm+P1464dQ/t5Hn1Xax/J1baWcUrM3axhKb7lcfFq2/NuTe95t6Z+uFsff6+hhQAAALj4RC2Etjh1TI53/i3Lv0u0cd/XukK/0/DZnVQ8P1OdW0j68gPlzfytPmnRSl9fYtGyB/rVewehGt2peVsnqrdvtqnPX/uNfrakVB7doLFrntSIdt7l33x/qSy/+VOd7Q/vXOtviv88s7d/gNGZdVTfO/pIC3ZJkg5seUsVd1yn4tR79HzCaaZoaulNpYfnDZZlXv2rObNWyjMxpf4VAAAALlJRCaFXnPyP3v/tRGUeuFv7F87WqvJPNGL935RU9IT6TD+p13M6q2zqJK34WytJ8bpy6lT/LT4jMalalXs/VjtfCP3i0L99z/xHR/Z/rE+OeZe3/tuxuhvX7JXzFe+oeKmjHjKfXQ1kfK8ByvjaoW0t4/S9PXbZD16nb53VHgAAAJqfqITQq995RrPfkX6sj1X6daYGPWjTEwfu0gynR1cWPaX7ioJWzvqt1g06/RycLfSmXpz0pl4MW27SXm3OfVCbT7dxXFf9dNlLarPjd3rp9U4Nb4qv1f4G9Rt8q5JvzlK/vl3VqdVxHXpuma43hU/FJJn2bdRc2+uqMpkUf0m83F+65dH1GjLvXt1+ed0OoO7vXHWWhQEAALg4RLVP6BWZN+naFpJadFS/ydM1pHiuNrUMFOlEu366v1dbmWpUe/fOiE6pr8Y+/TOl1taEvmXT//zhr/Koq4bMm6TbL/fVhP71jxr7zJt1tjd1vEb97pmjfvdE2vtJmU6e7qZSHZX+aHCb+qXq2PMmhc/w9GWRTTnLvQH0q0vu1NzfD9bBiaO04m8f6E+LfqdL58yR9abTz00KAAAQK4wLoe4K7S0N1A6asp7R+rva6dDm5zW/4I+yl/9XahlanNZHC7XqV4Va8e1O6pueWXcKJh+P2iqp6w91TW2f0Irae2hepg6dfqhravuEnmhIyDuufa+u1fZ/esva6ug7WvNegu84ZnU9ixsjnarerw8dG/XS8pe18+jXkkyquaSrhtlylPGdVpJttlwj52n7Z+/o95MGa323gRqbPUaZqZ303UsafhwAAICLjXH3jq85pMKH79IMZysljP2tft/hBY147O06E85/2XOClk3opgNLH9bid8LnZuqk219YrdzrvE3X53OP9tPdl/1w3jANX/6POsv/03GCVr88+gwDlw7JMft/9Pyuv/omyQ840TVT05+YoZ99L3j1nVryP7P0h31fh6xrat9V12U9omeGdz3N7UMBAAAuTsbVhMZ1VL+p03XLls6aft/1al1j1fQ/vqnZH3tD5Kluw/XAg/cq+0fe2soez+zQ0P0O/XnVC1q29UP9yyQ573pIO66LNHnmpUq6tuMZw1qLLw7p4wPHz1jUxOvTJa0PW9pJQx69uwEj5zvKMvxmrdj6qdTCG0I93Qbq3nH3a1RqhNtyduyvnPw/a/jm5/Tk0g0q9QXXzy6x6L6hBFAAABCbjKsJjWTva1qzt616pd2oLvXNvyRJNcf1tz3v6x8dLErtEFj82c7n9fJfTfLoGt0yrp+Sz3S8gzu1fOteSVLHQRM05Hv1rOc+pI/+cki19bAt2ndWcmLbwLyiZ+TWwS0v6q34dJlvrtt9oF41bv3jk0Lt3vR/cg2fq4eubujxAAAALi7RDaEAAABolho8LTsAAABwoRBCAQAAYDhCKAAAAAxHCAUAAIDhCKEAAAAwHCEUAAAAhiOEAgAAwHCEUAAAABiOEAoAAADDEUIBAABgOEIoAAAADEcIBQAAgOEIoQAAADBcSyMOsn9/pRGHAQAAwEXC5PF4PNEuBAAAAJoXmuMBAABgOEIoAAAADEcIBQAAgOEIoQAAADAcIRQAAACGI4QCAADAcIRQAAAAGI4QCgAAAMMRQgEAAGA4QigAAAAMRwgFAACA4QihAAAAMFxLIw7icrmMOAwAAECI5OTkaBcB9TAkhErS1cV8CACcvX1pLq4fAM7JvjQqwZoymuMBAABgOEIoAAAADEcIBQAAgOEIoQAAADAcIRQAAACGI4QCAADAcIRQAAAAGI4QijNLkzwjJdspj3/RR9mSJ+xf6bWeOptOuU3yDKu7vCHy7pQOWE6/7UfZ0hcDfetcL/0ruJxp3nK9VnNuxwdwAUTp+hHpuOG4fgDRZdhk9biIFUumNMlzt0la55G1hUmS9PqLHt0a5/278JfS5eHbpUlPtZckkzzZkXcdvI+zdr308jvSpBtNOmDx6Kp/B+0nTfIkS5WferTrRyap/NwOAeA8cf0AUA9CKBqmWDJJUguTdL3U0S29fppr/5TbvF8g/3ZLl3/hkakgdOWPsqWrDp/HF4gkfSDNkjSrXJK85Qopb7FvOYDo4voBIAJCKM5a4Y+kVkcDNRrhptwmPfVt6ek87zpTbvPWZFR+6tEXXUz6oaSyEo++8dG5X+Brv6QimTTGpElhyyo/9egqB18oQLQ15vWj8JdS5/11/1/Pu1P6xXGPvuFLvlw/gKaBEIrT8zVLSd4L/3vXmtT3vx6ZwqoxNh6TnuphkqeHdz3TVpO31kPS0DbedZK6+LZxS8XlCumR/FG29MNIx7/MJE+Xuotff9EjU1AtSN6dUt/jUtu2kideuuLz8NoTvkAAwxl0/ZAkXS9190ir/q/uc2P2Sj+9waTSaz1K/cikRVulRUHPc/0AosPk8Xgavde1y+XS1cXJjX0YNKLCX0qXl3kv4A1Zt2+rwOOykrDtrpc+v0G6ovaxW3p6Xd2akbw7pfQjp6+BqA2vlZ96+3R9foO0Y7eUflNg/9RiXNz2pXH9uNgZcf24/C5T6PUiTfJ8P3BtybtTGl0TGi65fsS+fWkuJSdz/WiqqAnF2Qn/Agjm+zLo9zvvBbv2At/dV8MRiX9gQYSmuV6XSUk1kbfLu1MafZl3+2vjTKrt02VySwc/8OhbH5qCymvSF5cGmuIAREljXT9+ZNK/EiLXgtYa84rUK9tbG/retSauH0ATQAjF2flAmvt96bFToRfl2j5X4bWZwaNXP8qWKsNGxNZnym3egQerLg00oUUy8F6TwqvyI/Xp+rJBLw5Ao2qk60deV+nzA/X3M621okp66icm6YT3MdcPILoIoTgrxT+VSjd4VHKPb1oTR1AzV4SagvCL/A/DHr8e6SDXS7PaS8UvSmN+LP3rJybZykO/YMa8Io0J26zwl94+Ya2qI9VaUIsBRFujXD+ul352Srq0AU3mi7ZK47Il/cUjU9gPW64fgPEIoWiw7j1MqvzUo7QWJul3Ut6dvvn76nTiDzjrmlBfc52rxLfeB9Kc70tPhc0xGC7vTnkHPBSYlHenSV8MpPkMaEoa7frxgXTpBw0vx7X5Unio5PoBRAchFA3SvlXgC6G2P6YkOY9I5g4meUZGHlx0NjWhwf08g+f/W7RV0m3SU2NMuiNskIC/LEFfZGNekfb4pnX58jBfJkC0GXH9CDflm5K+OH0TPdcPILoIoWiQa/OlKYNN8rSX94KdH3ZhTpM8vr5UwSHydHc08ddk+Go/4w97ZHrFJEVYv3ZKlcJfeqdsqnJL7eODy2KKuH7tHIP1jcAH0Pga9foRLGzgU+WnkcvjH4HP9QOIKqZoAtCkMUUTgHPFFE1NWz2TWQAAAACNhxAKAAAAwxFCAQAAYDhCKAAAAAxHCAUAAIDhCKEAAAAwHCEUAAAAhjNsnlAAAACjMU9o02XYHZP4EBjD5WJiXsQWPtPG4Vwj1lAJ1rTRHA8AAADDEUIBAABgOEIoAAAADEcIBQAAgOEIoQAAADAcIRQAAACGI4QCAADAcE0zhJbZZFpaHrLIXZCj4VuORalAsapcq1NTA+e1yq4pUzbqcO3TZTb1ND8th+9hpS1VFrO5zr+e5qfl1IdaNtm7Le8Voorrh0G4fgA4P4ZNVn82KovyNSP9Fq1OTdXzCQlBzwyWZV7gUWLuZm0Y1Mbw8sWMqvbK3DpXfx18m6ZfWaL53w16rswmy8T1GrB8s675h6TvSknWUjlG2DXuj5214lfXe7/snRnyTEyRVK73o/QygGBcPwzC9QPAeWqCIbRcO/NHabD1OllKSzXKt9RdkKORrWbxpXEhtW+nb2uI5u4e4n1cFfRcd6scTmtUigWcO64fhuH6AeA8NbkQ6i5YodFjx8kj7xdHvwW7gp4N1GQ4s1b6fkHjXNQ9twHDzfPrLLt9wUx9NXWOtrWMkyRZ1nqXm7VeljXS93NnakCjlRZoGK4fxuD6AeBCaGIhtFzr5xRJY8f5l0RsMiuzyeQ0uGgxJn7YEjmGBR5X2lL1ux/M1T+379Q3i4s1b0xe3S/p3YM1M7hGKaw5bdkb+wx9DUAorh9G4foB4EJoUiHUXbBC7/XrH7Ls8LzQflx+WRnGFCqmlWt1apaeT0hQ3+Wlmv9du2bOSdIdW2ZLg8bIssZba9F3uVPzu3nXf2mONOT1SE2aKZqw2Pul4zas/EAA1w+jcf0AcH6aVAitbJGuuaP2a5EjsIyajMZRaUvVz9aP1uLSUv/oVVVJX9zcWYnfGay5uwdrriRV2TVrSA8Nn7NViz/N0sf5pZrfrv59jlifII/MGm+n7x2MxfXDOFw/AFwITSqE/iBzqFRmC1lGTUbjidNLmmp+qc7yOn26WsYpUd7RrSHPdLfqZGWOhm/xNq8lWUvlYCwCooTrh7G4fgA4X00qhEZCTUbjqHvBr1ahdaDscf20P+ORekYRB5rfQoV+0XtrMhZpTD01HoBRuH40Dq4fAC6EJh9CqckwRqXtFvW/Zo08E1NUaUvV8C3bInyRpGhU0LQ3ElPfoGnj+mEMrh8AzkWTD6HUZDSu2n5Yzqw1/tGsSdZSvVSQI4t5FxN646LG9aNxcf0AcD5MHo/H09gHcblcSk5ObtjKvmk7DnyVpRHrw5ttQpX2nqGKhZlKvABljBUNO9feprMZJfFnnC+xdj7AAzcOUdauAhXFxTW4LIFRscC54/phHK4fiDVndf2A4ZpeCMV54Vwj1vCZNg7nGrGGz3TT1iLaBQAAAEDzQwgFAACA4QihAAAAMBwhFAAAAIYjhAIAAMBwhFAAAAAYjhAKAAAAwxk2TygAAIDRmCe06TLstp18CIzBxLyINXymjcO5RqyhEqxpozkeAAAAhiOEAgAAwHCEUAAAABiOEAoAAADDEUIBAABgOEIoAAAADEcIBQAAgOEIoQAAADAcIRQAAACGI4QCiDHlWp2aKtPS8mgXJIZVq9B6gyxmc8i/6Xt8T1fZNbOHTY56tpu+R3IX5IRsazZPUd5RY18FgOgihAKIGe6CHPU0b1ebuenRLkozkKZxdqccztp/K3Vtti/8t7cow7xa9j1hm1Q5tDFutiZ18z5MzN3s39659Co9sMCuw4a/DgDRQggFEDPihy3RLuckDaz5OtpFaYZSNKp0jVatXKG8o21lSU/TguLQ2ujK9bN1IONmJUbavHuGlu3YpwpDygqgKSCEAgAukBT1zy7SppJjiu81QI+s2hbUJF+unfl9NKRHm4hbugtWaPTYW2QxqqgAoq5ltAsAAIgdHTr18f7RPlPj707Vc3ussnSTVLZNE9IHqKJdYN3D8wbLMs/7d2LuZnkmRg6oAGITNaEAgAvmyP4idb3SGyaT+mRrcb63n2dlUb4mZ2eGNMX7+4QuHaG/zVsbYSATgFhGCAUAXBhVdi1fl61M38Ajbz/P7Xrt6IfamT8qsDxcd6teHrFKT205ZlRJATQBhFAAwPmrsmvWkHmqecEa1K/T20d0zxMvnLG/Z5J1jYbOnMs0TUAzQp9QAMA5KNaKTLNW+B7VaKQW7y6pEzST+mTLOXG9po156gz7S9HI2VJa5tO6xjmJAUpAM2DyeDyexj6Iy+VScnJyYx8G4lwj9vCZNg7nGrGGz3TTRnM8AAAADEcIBQAAgOEIoQAAADAcIRQAAACGI4QCAADAcIRQAAAAGI4QCgAAAMMRQgEAAGA47pgEoMlzuVzRLkKzwbkGYBRCKIAmjzueGIO7yyDW8KOqaaM5HgAAAIYjhAIAAMBwhFAAAAAYjhAKAAAAwxFCAQAAYDhCKAAAAAxHCAUAAIDhCKEAAAAwHCEUAAAAhiOEAogZ7oIcWcxmWcxm9TQ/LUe0CxSzqlVozVHeUe+j4PNe37kPX2f4lmOGlxpA08JtOwHEiHI9d/A+OZxLJHlDz+VT7apYmKnEKJesOUjM3awNg9pICj/31Sq0DtRtrR5VhXOJ/72otC2RQzmyRK/IAKKMmlAAMSJF1ge7+R/F9xqgqUUuVUSxRM1V/LBxWrZjnyokuQvmqf81q3Ui7MdAkpUACjR3hFAAsemQS4+PziDoRNVncuwo1rS0lGgXBEATRAgFEHuq7MqdsF8v/pzwEw2VtiyNHnuLLDolKU1d6Q8BIAL6hAKIKe6CHF1ePEAVJYvpC2qgw/MGyzLP+7cza408E1MkVUsq1t7DktpFsXAAmiRCKICY4S7I0chWs3RiYZtoF6XZCR6YFNBWlvQ09S8u1/xu1EoDCEVzPIDYUGXXtDfT9WydIIRoih82Tvkrs2RaWh6y3Ds6HkBzRk0ogNhwyKW3nes13Dw/ZHHf5U7N71bPNjBAikaVvqEk60BZzPH+pX2XOzX/NFsBiH0mj8fjaeyDuFwuJScnN/ZhIM41Yg+faeNwrhFr+Ew3bTTHAwAAwHCEUAAAABiOEAoAAADDEUIBAABgOEIoAAAADEcIBQAAgOEIoQAAADAcIRQAAACG445JAJo8l8sV7SI0G5xrAEYhhAJo8rjjiTG4uwxiDT+qmjaa4wEAAGA4QigAAAAMRwgFAACA4QihAAAAMBwhFAAAAIYjhAIAAMBwhFAAAAAYjhAKAAAAwxFCAcQMd0GOLGazLGazepqfliPaBYpZ1Sq03qDWU+06HPaMuyBHw7cck6rsmtnDFuE98G47fU/gb94zoHkihAKIEdXaGjdWDqdTDqdTL49Ypd5Ly6NdqBiWpgdPzdeDW45Ffrq9RRnm1bLvCVte5dDGuNmydjumQutAPXPrG/73bNfSq/TJ0UYvOIAmghAKIEa01dAh1/sfJfXJjmJZmofrZ6zU0JlzlRcxOLaVJT1NC4pDfwhUrp+tAxk3q4M8ktI0pEebwJPdh2lMu8YsMYCmhBAKICZVFuVrWlpKtIsR0zy6TtkvdNYDC+o2y0tSfK8BemTVtqAm9nLtzO/jC55tZUmXns+kCR5orgihAGJHmc3fv/C59FLN7xbtAjUD3a3ae+XsyM3y7TM1/u78QJN82TZNSB+g23y1nfHDlmjXUo+m0h8UaJYIoQBiR3erv3/hAztSIw6cwYWXZF1Tb7N8Up9sLc73vg+VRfmanJ2pxOAVfO/ZrqUe/do8pZ6mfQCxiBAKICYlWddo2Y59qoh2QZqFFH+zfGWLsK+V7hlatmO7Xjv6oXbmj1JmfbXT3a16c9opbSqpZ6ATgJhDCAUQG6rsWv9+4KG7YIUmpF+tztErUfPia5Yf9YQz7IkU9c8u0p4nXtDosbfI4l9eLtuzwUPnq+XYUWxIUQE0DS2jXQAAuCDaJ8t9e6osCQmSpNLeM1SxMKzpF40qybpG9+dnqSB8eZ9sOSeu17QxTwUtTdEDV+bIYt7lX5KY+4Y2DGojAM2DyePxeBr7IC6XS8nJyY19GIhzjdjDZ9o4nGvEGj7TTRvN8QAAADAcIRQAAACGI4QCAADAcIRQAAAAGI4QCgAAAMMRQgEAAGA4QigAAAAMRwgFAACA4QihAAAAMBy37QTQ5LlcrmgXodngXAMwCiEUQJPHbfeMwS0OEWv4UdW00RwPAAAAwxFCAQAAYDhCKAAAAAxHCAUAAIDhCKEAAAAwHCEUAAAAhiOEAgAAwHCEUAAAABiOEAogZrgLcmQxm/3/Wk+163C0CxWTqlVoveE057dcq1NTNXzLMUl13xeL2SzT0vKQfU3fU3cv7oIc33re/UXeHsDFihAKIKYk5m6Ww+mUw+nUiYWZSqH/3QEAACAASURBVIx2gWJWmh48NV9PRwyPK/R8QkLIsuD3xeF06sBXWeppfloOtZUlPU0LisNDZbUcO6QXf54iSfJolBb6t9+knZ+MihhcAVw8CKEAYsaR/UXqemWbaBej2eib/ssI4bFcL83ppBmP9D7ttknWUr08YpWe2nJM8b0G6JFV2+QIXqFsrW5rNUC3tYu0tTe47j147PxeAICoIoQCiClvjvc213pr2dCYjva6Wzs/WaG8o4Fl7oIVGj32Fg2s+fqM2yf1ydbmHW/pSPveyjCvlj2oZrOyKF+D03vXU5NdrpfmSEN68IMDuJgRQgHEjCRrqb+5t3iaS+n0CW1k35YlXbr3D4H+ncFN6GfUMVkTT3nkURv1Gz0qqFa1XDvz+4SETJNWa6q59gfGdnUpXaIxEWtJAVwsCKEAYlL8sFxt/Wq7th4987o4d/HDxmnVyje8tc5la9X/mnEND4eHXFr8g6u9tZ3dM7Rqpa9WtWybRo8N3U+gT+gmPdkjX09toSkeuNgRQgHEqCM6UBztMjQHKRo5e78WbylX4aqKhteCqlqFq1ZrWlrt+inqn12kTSXHVFmUH7Q8XFv1m/Gorn10Dd0tgIscIRRAjCiX7dlAp0J3wQpNSK9vYAsupPheA3Tt7DGnGUgUrlqF1oHqf81qze8WWJrUJ1tF25/Q8nXZyuxW/9Zqn6lZj1SoN9M0ARe1ltEuAABcKN9+MVuWdd6pgUp7z1AFUzQZo32mxt4zW1+l13++D88bLMu8wOO+y9+VJzxods/QU/dlKXvsGj12hkPGDxun/NQsDe+0TRsGMUAJuBiZPB6Pp7EP4nK5lJyc3NiHgTjXiD18po3DuUas4TPdtNEcDwAAAMMRQgEAAGA4QigAAAAMRwgFAACA4QihAAAAMBwhFAAAAIYjhAIAAMBwhFAAAAAYjjsmAWjyXC5XtIvQbHCuARiFEAqgyeOOJ8bg7jKINfyoatpojgcAAIDhCKEAAAAwHCEUAAAAhiOEAgAAwHCEUAAAABiOEAoAAADDEUIBAABgOEIoAAAADEcIBQAAgOEIoQBiS5lNFrNZFrNZPc1PyxHt8sSkahVab1DrqXYdDnvGXZCj4VuOSVV2zexhi3D+vdtO3+Ndt/a9spjNMpunKO+oMa8AQPRx204AsaPMptbrklXhdCox2mWJeWl68NR8PbiltzYMalP36fYWZZgflX2PVZZuQcurHNoYN1sPd5PkkhJzNwe2L7Op9QK7bluYyfsHNAPUhAKIEdUqXOXRDgKMYa6fsVJDZ86tp/ayrSzpaVpQXB6ytHL9bB3IuDnye9Q9Q8t27FNFI5QVQNNDCAUQG6oc2hiXrP8+08vfvDt8y7FolyqmeXSdsl/orAcW1G2Wl6T4XgP0yKptQU3y5dqZ30dDekSoOZXkLlih0WNvkaWRygugaSGEAogNh1x62zlfO/q9LYfTKYfzdLV0uGC6W7X3ytl6MFLgb5+p8Xfny77H97hsmyakD9Bt7QKrHJ432P+jYWSrWfJMTDGk2ACijxAKIGaU9p6hSf7+hynqn12kTSXUhja2JOuaegN/Up9sLc731pRWFuVrcnZod4nE3M3eHw1LR+hv89YykAxoRgihAGJDx2RNPOWJdimaqRR/s3xli7Cvle4ZWrZju147+qF25o9SZrfIe1B3q14esUpP0YUCaDYIoQBiQ3uLhtbMCTQLV9m1Yl3fevsf4gLzNcuPesIZ9oS3RnrPEy+csb/n6WpUAcQeQiiAGNFW/WyrNWxmhnfOyTt2KnnLYo1pd+YtcWEkWdfo/pMn6y7vky2n06FpaWfq75mikbOl5zOZ3xVoDkwej6fR269cLpeSk5Mb+zAQ5xqxh8+0cTjXiDV8pps2akIBAABgOEIoAAAADEcIBQAAgOEIoQAAADAcIRQAAACGI4QCAADAcIRQAAAAGI4QCgAAAMO1jHYBAOBMXC5XtIvQbHCuARiFEAqgyeOOJ8bg7jKINfyoatpojgcAAIDhCKEAAAAwHCEUAAAAhiOEAgAAwHCEUAAAABiOEAoAAADDEUIBAABgOOYJbdaqVWidp4rcJRrTLrDUXZCjy4sHqGJhphL9S8u1OjVLzyck+JeU9p4h+1WPa/bvTHX23He5U/O7SSqzqfW65KB91d2PR2aNty8KKYMkVdpSNbnLNm0Y1ObCvFwAANBkEEKbs7K16n/NOHnaeQPfiPWBYJiqXRpufkJSUEgsLdUoVavQukbxthxZJEmZuuWh0N1W2pbob918D7pbdUI2tZ5q9wdRj0ZpobN2e18QDiuauyDHV57BssyrW/TS3jPCQnITUWaTyZkhz8SUaJcEAIAmrYk2x5drdWqqTEvLo12QGFatwlUevRUUlvoud8rhDP+3SfN7nApsVuXQxrhkdfYvKNeyyRt1OOjxn/cHPy9vEK0NjFUuvdcv7PkwlbZU9V3QQhazSYm5m0PL8+oMZXxdo8nZYQG0yq7cHpOVd9QbYC1ms/+f2TxFeUfP7SwZosymnuan5Yh2OWJGPdePKrtm3dRDFrOZ833eqlVovSHk/7PWU+3671+eVuup9qDrQa1y5afm+P4/DN2W9wJovppcTai7IEdpC5KVOzddqox2aWJY2Vo9c+sobaiya2amSx1GfUNvjjf7aidDeWTWeN/fletn60DGtkAArHLpnR8ka4J/v9t0f5eMwOMQ1Sp84lEduPWNemswK22puqrVGnmcKf7HZnM/TV42QB/cN0evtbxHi3eX1Cln5frZ+vqFUo1pJ7klJeZuvnia8btbVTwtRyO3HJPlYilzE1X/9aNc+bdvV+fXS+Ro5+tyElQ7j3ORpnH2JWHdaMq17N4V2no0M3R52TaNHjtOnnbVKrQO1DO3viGHzfdZLytQ3lHJEtYdB0Dsa3I1ofHDlmiXc5IG1nwd7aLEtMqifB2eN1jmO3bq6i1WDa35op6aUKecTl9/zSq7VqzrqyE9goLSIZeOde7of+iurNC0NF/tapktpCay0naL+l+zOiwctpUlXVqR6V1v+92lQU3Z5SrMl0xyasmEx7StZZxKsgbUDcpVdi1fl63MbuFPhHIX5Mi0tFyVttR6aki9NWi1NTTT9wS2q79WNbBNT/PT+rBFXOh5tgX2N3zLMf82+ak5sm961r88vtcAXfvoGmqEzlO91w9fCKoNRvHDxmnZju3a2pRryC9KKeqfXaRNJceCllWrcNXqwHVBaaHXkO7D6vQHB9A8NLmaUBgjyVoqR58C5V3p/QKolNTxzWdkGf+7iOv3W75ZA1c+qu1x8dqeadYK+QYfSTo8L7zfplk9NVKLnVY5nPf4+3wmWUvlibDv+GFL5Bgm+QOdb9BSjUZqcWlpaDArs8liHut/6MxaqZPf267HR4/TYw143eY1Y/Xc8lI5rL7asAV23bYwU4m+AVMf5ZfK0U1SlV3rq7zHS1uQrMXOJd7wW2XXzEE2OUqssqhahdZRgW18+9DY/pK8+w/U6lar0HqLpl/5ruZ3k0wq0tDKcfI4H/SVzKIM83Z9Qo1Qo3BXVujOTsF1nh10VVqxXjssifN9QSX1ydbmdW/p8KDaLjgObXOOUqZNqv3R+ZvMp3WNc1LElhcAzQchtNkq1+r75mhFwgI90HuG7FfFS/I2Y7/01VzNTl6iOa4c/3+fPObU+q5jlN0iSUMXD1XbghzNlqTuVjmc1tBdV9k15UlP3X6fVXbNGjJP21rGhT/jH2g0qrRUo/zrvaSp5pcilj54YJK7QGEBIzQY167bVt7Q6vDVmMb3GqCpj7tUISmxbJuyx66Rp7Y2tX2mRrSvVqF1tdKXvxv4smyfqfF3p+q5PVZZvl6r21o9qgp/DWyKRr2QrWyn9/y+NEd68fXa2p+2sqSn6ZmDx6Rukkd99OLPgwcvtVVychGhqJEc2V8kdQle0lbJyZF+EqHhirXC94NUCuoC0/0ebV01z98k73479Edi/LAl2pXkbSWp0UgtJowCzRYhtLkq26bnEvr5pkaqVqG1lzrdUneqpVpftBms539VrmWT9537MdtnaubM7SpvNSukSd47FVPvkL55x9NmasOiob6aFG+ofbj2sULLUTdgRO4T6q5TnmR1+dq7n7o1ZbXS1DVscYdOfbT34DEpUTqZnFxvn0KTikK+pCXJmVV3yAYaX4dOfcKWVMvlMknpUSlOjIjUJ1Sqre3s/4dyjZnYQY4d0ou5YbNF1P54LbPJbJ4ScYo2ALGPENpcdbfK6ax9cEQHijvppnulw/cPVj9Jkjnkv32X193FFZWbNOveuXVqNofOfESq0/D+mV5/plg/emiWHgpqlvYPRAoLjJcWP6bh5vkhy4Ifl/aeoaG+v+sGjHPzyv7DksIHBhVrb1jt5JH9Reqa3kb6WkpwuXRYKf4g6q4MTDYVOhVVMGZ9iIbQ9/eIDhSnqWtuNEsUu+J7DdAjmdtU+rMfaGNcuh6uL2B2t+rNaTkaWXJMYxiUBzQ7TW5gEgzkn7JmrEaPvUXXnapRYu5mFU7rqb7LnSH/jeRfSUM0d3dJnYFM0zru09IWwbWqxVqROUg7+w1VB7VRP9u7emCHd8DOVa3WRJxT83jaTG0Impapl3l64LFzpWw1oSHXGzDOXXyvAcrNG+MfjKQqu9a/721C3zE+aAqZ4EFQ3TO0fMdsPV27jcq1fk6R7+8U9c9erd4NnmasWi5Xnzq1rrgw4oeN06qVK/yDytwFK0IGKuECa29Rhnm11s3foQMZN4fc9ML27J6gFavl2FFsfPkANAnUhDZTlbZUdT04R/t3b1W69Ra9lpYifb3tjNtd8uaj/hrJSLWjkrc28GRyhu+L54gOFGdpYam3RrB2UvwajVbuI5V64vGxau2qO/H82dSExvcaoMlP7gupkQwfLNV3uVNzTvfC2mdq7iZp1pAesrSM803Qn6n4Hy1RsXLUz2yW5BssVWL11W6maNSf5/i3qdFI5eXdK73l3WWS9Q3ttA6Uxeztb1vfnaEk+QZvdNYgQlEjSVH2C51l8XWPKO09Q4cWckOB8xPaJzS0f6f3B9z0BR6NnxFcw5miB67MkcW8y78kMfeNi2c6NQAXlscA+/btM+Iw8JzDuT6y0TN5coHnkMfj8ZQu8dy5uTrkudwbb/L06jXZ8+I/PR6P5wPP8znedU++avVMe99TZ11zr15B6wecfNXqMffq5dFvP6hbhtIlHnOvXp4evWyet8LLFFGgHLUOLOkeWp6LzMlXraHnHn5cP4zDuUas4TPdtJk8Hk+jDxF1uVxKTk5u7MNAzfhcV9mVm7lDyVsWX3xNrGU29ZxoYpRwPZrtZzoKONeINXymmzaa4xEb2mdqXklmtEtxbrpbtct55tUAAIglDEwCAACA4QihAAAAMBwhFAAAAIYjhAIAAMBwhFAAAAAYjhAKAAAAwzFFE4Amz+VyRbsIzQbnGoBRCKEAmjwmmzYGE3sj1vCjqmmjOR4AAACGI4QCAADAcIRQAAAAGI4QCgAAAMMRQgEAAGA4QigAAAAMRwgFAACA4QihAAAAMBwhFAAAAIbjjkkAYoa7IEf9FuySJNVopBY7J8kSvEKVXbOGzFP5nK3aMKhNVMoYCyptqZrcZVvdc1hm0zfXtdfvv1qoJ0pa1dmuY+5aPfjazzWjJL7Oc4m5m3lPgGaGEAogRpTruYP3yeFcIskbSC+falfFwkwlyhucuh6cI/uoFiqPbkEvekl9srV53Vs6PMh7bmtVFuVrUnaphnQboSGSVGXXzEyXBpVYAz8GBr0rR33PAWhWaI4HECNSZH2wm/9RfK8BmlrkUoXvcZK1VCcWZuqaU+7oFC+WdM/Qsh3btfVo0LIqu5avy1Zmt3q3AoAQhFAAsemQS4+PzqCWrVGkqH92kTaVHPMvcb+9nfMN4KwQQgHEniq7cifs14s/T4l2SWJW0og5umrb/+mwJKlajh3FmpbG+QbQcIRQADHFXZCj1v9PmliyWGPaRbs0May9RUNr5ujpPZKqHNoYN1uTaIoHcBYIoQBihrsgRyNbzdKJhaEDZtAY2sqSnqYFxeVyv71dBzJu5pwDOCuEUACxocquaW+m61mm+TFMfK8Bmrlqpaa/GachPTjvAM4OUzQBiA2HXHrbuV7DzfNDFvdd7tR8mokbR3uLBpgf1W0tHlUFXR8AnCWTx+PxNPZBXC6XkpOTG/swEOcasYfPtHE414g1fKabNprjAQAAYDhCKAAAAAxHCAUAAIDhCKEAAAAwHCEUAAAAhiOEAgAAwHCEUAAAABiOEAoAAADDccckAE2ey+WKdhGaDc41AKMQQgE0edzxxBjcXQaxhh9VTRvN8QAAADAcIRQAAACGI4QCAADAcIRQAAAAGI4QCgAAAMMRQgEAAGA4QigAIHqq7JoyZaOO6EOtTk3V9D3RLhAAoxBCAQDnpNIWHhrLtWzyRh0+h33F/6O9BpZu060rc5R3NPiZahVaa5dVq9B6g0xLy8+j1ACaCiarBwAYoFyrU7P0fEJCxGeHDAv87cmcItkXaUw7SVUObYxL18PtpErbLZpRkiBzyVhZ1njXdWatlGdiytkVpcymnhNNWuycJMtpypufukKnXl/iLUeUVdpSNbnLNm0Y1CbaRTl3DTrvaE4IoQBihrsgR/0W7JIk1WhknS+74OdLe89QxcJMJUahnBe7wHlMkNab1br3DNmvelyzf2eSJOWb50uqGxA9GqWFzpywAFKuZZP3aejioRHfi8r1s5UwplRf2VLV9eAcVThr3zNvSBz387MMoFV2TVnTWa86hyqxzCbLxPV1VqnRSC1xZpzdfqOtyq5ZQ+ZpW8s4SU30893dql1LbTItLT/7Hw6ISYRQADGiXM8dvE8O5xJJ3qB0+VS7/4vYXZCjhL+Pk8f3PM5d/LAlcgzz1s49l14qRzdJytQtP7drypMePbxoqBKr7Br3R89Z7zu0xq9cO/NHKavfsxqxPkGpekLDzU8EVk6QlGnWCkmJuZsbUEtYrcIntqtb7hJvOOtulcNpjXBcSSrX3rMufXS4C3LUd0ELjf9ziRy1tbZlNk3fI83vFtWi1dX9Hu1cNU95R5tGDTOiiz6hAGJEiqwPBr5x43sN0NQilyokSeXKK0zXIWpfLqBquVwmvTneLNPS32p1aqp+/WShFv/g6npr30xaralmsyy+f62n2nVEJrV+M/A+7czvoyE9vEHQXbBCSxNa6PMfPyjHqzOUcs8KOZxOOZwrNeHkL7TQ6ZTD6VThtJ4NK3LZWt3WaoBuO4vw881DmzXrph7+8gb3d620pfpfy/Atx7wLq+ya2cOmTZumymI265E9Hyo/NUf2Tc/6152+R1KZLfSxj7sgx7+8p/lpOc5UwCq75j7eWU85F4WGuu5WfwANLmfgNZSfVbm83Sm8+zGbp/j77boLcmRaukmF1hv85T39a2grS7q0qeRYA84+Yh01oQBi0yGXHh+docckqWyb7u9yta6x3qDhJfGSpL7LnU2vlugiUVvz1tucoL7LHd6a0Im/UqUtVY41HuX9fJHGRNgupDm+zKbW6ySpg65K269PjkqWg9s0euw4edpJqrJr+ptxuqUmUJuauOpeWdZ6m5uVIMn8+8BzuQ0od2WFBqdnNbiJ2qQijVo9QBW7SzTX16f16T2Zmt/New6uarVGHmeKvAOmbtH0K9/V/O9KLTzrlNdiqxxOb23uahVpaOU4eZwPekPeeLNMWSvlcVq9/STHPy2Hc5IsqlZhZbo2OL01tZW2VF21dMBpm67db2/X46PHeT/nEZXrT3H5cji7+co5UA9u6a0Ng7yvr8Hlso7SR/m+Wu8qu2YOsslRYtWNknqt2aEK+7va1U6SqvX6GV5DfFJnveI8LOki7t+KC4KaUACxp8qu3An79aKvv6C7ssL7RZn7rrcm7dUZirvPduZaJkQUP2yJnM5FmnTVicDCKruWr8vWIudYtRiYoz9UtdBl+1w6og+1bPJGHZFJJ/omq3PYvjxqo+RkSfpMhasq/O+ZDp1Stxn3qcvXvhDaPlNzd+fp/pMnJXl/RDh8NaGOV+16tgEDdo7sL1LXKxsefDzqo+em1farTFG/bGnvwWOSyvXSHAXKqraypKf5npNOme7Wr4PK41GfwLrdMzThZM+QxxNPuvTJUe9+Bj4U6Bub1Ce7QeW8s9PpYnVwC4G3nGddrrK1uq3Vo5pUu5v2FmWYK3xllt7Oui+oFrYBr6Fjsib/dd85zaKA2EJNKICY4i7I0eXFA1RRsjikxuvtrPvkrP2ibG9RhvlR2fdYZaE29Dz0UddESSrX6ttn66PHtukxtZG5dImkcn1Z+IYO/TNOn5ikhH+49IkpdOuTycne/rqdpBWZg7wDmWrfo+7DNFrlypf0rfeeleX+dd7BZqWlKizIUZqvlu77tlSNWJ/QwD6h56dDpz7+v00q0gpff9RazqzD0g3neZDwwVJZZx4g9cr+09cqBg/IkxpWaxwu9a2w/riS+taXIs/hNaB5IoQCiBnughyNbDVLJxaGfiHHJ3WW/h6lQsUiX8io0Ugttn6mQusoFTwWPn1QikbOXqF+Q3+vxNzN+vbf12jxDzK0yPesu7LCv2Z8UmfVKFlv+Zpsa9/HDYO8z3/+4wflqG0yNpuVmLtZxdPmqp/ZLI/6abx9UYMGuXTo1MdbW9nt/MNq5JH+kqpc577TMptar0tWhdPp/QFVZpPJefpN4nsN0COZ2+SYmBJx2qPwAXnughyNPIei1TcVljv85TbkNRxyhXwW0HzRHA8gNlTZNe3N9MjNst0zlL8yKzDQomytflOSrUxqQc9Nd6scTqd2OSfJom+rn+3diLWQ8cOWyOF0asOgNnJXVmhaWiDEHNlf5GtGLtfq+/IVp5dk3xN4LrjZ/FvveQfPmJwZcjidWvxphvot2CVn1ko5X+2vfYMa1rUiPqmzNu946wI0A6eof/Zq9b7Ak+a7Kyv8tcOSVFmUf+aN2mdq/N35mhw+AMg3Oj5wniWpWo4dxWdfsPD/f06jIa/BXVlxhi4EaC4IoQBiwyGX3nbO1/Cg0deBEb4pGvXnOWp1r3eUMxNmn79KW6pvRLh3lHXwHY1qw0rwOi/N6aTMboGR2r9Y309Depj8taiOpSO0ON+uIzoml6u2md/LWxPq1MnvrZDFbPZOC/XqDG+/wvaZesyerC09GhBEu2do2Y7t2nr0TCueWZL1De38ZJT/cxY8YvxcxQ/LDdlnQVyk4V2RylKq4mmukJkHTM4Mze8mJVnXaNjMDF8ZH9eeLv3PoWSh//9Emimg4a+hWo4d8s+AgObN5PF4zn4it7PkcrmU7O15jkbGuUas4TNtnIaea38Tb23zbG0T7MJMJVbZNTPTpUElVllq1/30Wo29pLdW/Or6oL14R2o/c+sbgVpUXzN/YKL1cuWnvqFur3XRq4PmqHzOVi3+NEMj1nvvunROMxyU2WRyZjBZerQYfP65fjRthNAYw7lGrOEzbZzmcq4ra+++1NTuKBTronDbzubymb5YMTAJANCsJFlLdeLMq+FC627VrjMMtELzQp9QAAAAGI4QCgAAAMMRQgEAAGA4QigAAAAMRwgFAACA4QihAAAAMBxTNAFo8lyu87gfN84K5xqAUQihAJo8Jps2BhN7I9bwo6ppozkeAAAAhiOEAgAAwHCEUAAAABiOEAoAAADDEUIBAABgOEIoAAAADEcIBQAAgOGYJxQAcP6q7Jo1ZJ7K52zVhkFtIq5SaUvViPUJp92NM2ulPBNTfI+qVWgdqBkl8afdpkYjtdg5SZaIx8zR9ruXaEy7BrwGAIYihAIAzlO5Vt8+WzX5azU0e67yetQf+voud2p+t3p2U2aTyRm8oK362d6V4xxL5S7I0eQus7ThAgTQSluqrmq1JiggX9wa8npi7TWj6SGEAogZ7oIc9VuwS9Jpasd8NXZfvVhSfxjCWahWoXWUCh7bpg3d2kh/HqCZg2xylFgj1ky+Od4ccblfVsYFKZW7IEcJfx8nz8Q2IctmJy856/fdG2a3yTOojSLVzobW3l4ckqyl8jRgnQO2VE3fU8r/K2gU9AkFECOqtTVurBxOpxxOp14esUq9l5bXWaty/WxtaxkXhfLFoCq7Zt10u5659Y1AE3z7TD1mT9afe0xW3tG6m/Rd7vS/R3X+LR1xQYoVCKChwTB+2BI9sCNV0/ecxc6q7Jr2ZrqeDelikKZx9tpyb9LOT0Zp+JZjF6TsTU3SiDk6mbdRh6NdEMQkQiiAGNFWQ4dc73+U1Ce77iplNl3Vaq6e6OE2sFyxyV2QI/MdO9X5zyV1+4C2z9S8krGKG5gqU9gPgTfHm2Ux1/Nv4vrzLlelLbVOAHUX5PiPMWJ9ggrHT4kYkCPub/1sHci4WYn1rtFW/UaP0iv7D/uPX3us1lPtvvBWrvzUHP3h/c2adVMPWczmOucleLue5qf9XRDcBTkyLd2kQusN/uXBryd43Upbqn6+ZbNWp6YGHaM87HFg3eDgHLzPQLkltbdoaM0ObW3g+QLOBs3xAGJSZVG+pqVbg5aUK/8+j94q7S23td7N0AC1fQUPjMjSiEyzVtSzXmn6HH165QtqPbW/KhZmKslaKoc1dD+Tu2yrZyBTuVanZun5hNMPZKrlkVk5k1rItj5BZo2VZU3gucTczXI4g49RrUJrjvJyzzRgqVouVx8NuTvyQKtIZf5TXL4czm6qbbZ/cEtvbRgkmVSkUasHqGJ3ieb6Xtv0NG8zt7sgR10PzlGFM9Mbdstsaj3VroqFmWorqdeaHaqwv6td7bxler0yXRucS5Qo33uxdIA/dB+Yt08/KC2Vw3eMnmtGa3HQ49pjBnMX5Ojy4gGq8O3zr/aNQc+2VXJykV47LInBXbjACKEAYkeZzV+b1nd58Jett9/ix/nvKlvVKoxaAWNDoD9hcKgsV37qG+pSmhPW5zNTJzKrQe6IGQAAFClJREFUVWi9QcPrjHJPkDRYlnmhS0t7z1DFwkyNKi3VqKDlpw+tXr8Y2ZBX0Fb9ZgzQut9/oDG/uv406x3RgeJOuua04atcq+/L17R874mwPhg4hiU9Tc/4HnnUR89N84VMpahftlRw8JjU7bBemiM993pmoLa1+z3aumqeth7N1N2S3s66T852gf0OfGio/+hJfbKloMFc38+9x3f+fcfoEvb44DGpW2ggd+yQnssNHP8HmUMVrEOnPtpbZzvg/BFCAcSO7lY5nN4wUGlLVev8Od7apIJ53n6LDK6IEu8o98KCHI1sNav+EFlm0/DDWToR6fkym362frQWO88QhHwDz07X77d20NqKX53FSwhRrBVBNcB98wM/eIIHx0lSYm7kPXTo1CfoUXjQDap9jCTox5ak8xzM1ZCgDTQOQiiAmJRkXaNlqW9ovz7UG3OKdDghuMYtXioxa3ju5tPWquE0IoW9BEnm34esFj4l0+F5dWs+gyXmZkVYWq78+yp0/+tL/LWsp6sVPZ42UxsWDa2nH6e3xrZhOuiqtP365KhkCQlpaRpnr9uU7x8Q5Vzif9ygilmFH8PbDaDr3ZJcYauW2dR6XbIqnE5/033otFbnItJrDDiyv0hd0/n/BBceA5MAxIYqu9a/H3joLlihCelXq5Ou06jS0qBR2Jv0RA+3+i53EkDPR/tMzd1dEnReV2rCyV9oYdiI9+AAGj9siW+9nt7R5UtHePtrvjpDA2p6aZw98ntSacvSxsdmhYS+JGupXvpqbp0BPheWt0ZyU0nDRr4f2V+kOzvVRt9qOXYUN2CrFPXPLtIDC4IGA5Wt1W2tBui2CKHQXVmhk8nJ/oBdWZTfoLKdzfH/av//7d17bFNXgsfxXwrESLv/FLLKpquG4j7QKM0fMTuh10wohPAo4CAtUgW04TEFumXbOmWoFtKFQKHQShWJYUQpyQwkaTWZalkpuFAogQZQ7ZIRyWhRNNPOjIHsTrPR4K60UqWOKfX+Ycex8yBA4MTcfD9SpPqe6/jk3Kvy83nd5NXw8UA8+Mos4I7REwrAHrKdijzjkju+kKVnXiH/dqaPnicm/cPOWh34Iakg26Md74fk9lg6KEvr/HsSgTOxaMcbD6d9hqItXdD4UOq1/tvzO7XE2j1oPW44lqnqFuucO2Oljn34uboWDH0v5XobtNhVIvcOh6KytPy5Wbf2Gd42feVzaYm1S1Lqvdt3H4fMxVv0mXeu3FZsfu2y51bf4l9y658fLKvt3UO0O6CjY4r1OsP1uAcyotHoUPvVDlsoFJLT6bzXHwPR1rAf7mlzbrmt+85JHELOlmOq+kNJ79N3UhaQpfaWJlZqv+tRzgAr5AfaGD6SPNe0268N70T1+hDD8f0XUA2u0+fSe8Wjc8P2+/1v5/8f6Y0QajO0NeyGe9oc2nowsTDctPPmK/Ptxg6P7eSeTm8MxwMAcFN5/baLGg1u5dGewHCwMAkAAADGEUIBAABgHCEUAAAAxhFCAQAAYBwhFAAAAMYRQgEAAGAcWzQBSHuhUN8HaONeoa0BmEIIBZD22GzaDDb2ht3wpSq9MRwPAAAA4wihAAAAMI4QCgAAAOMIoQAAADCOEAoAAADjCKEAAAAwjhAKAAAA4wihAAAAMI4QCgAAAOMIoQBsI9JULrdlyW1ZmmbtVSCprNPnSpS5LUsZ+ztGrJ73v7BavFM1fqNfXQOWd6je5dKS49+kHO17DTZfihd0+7X1x4VcG2CU4bGdAGwirBNj1igQrJYUCzyT9s9WdH1e4oynDwa1O3+k6mc3RXr5h93ae8nTr00jTTU64HAoJ3GkQ/WuMq1c06BosOd6hPXpvqP63+wHtMdzRs5PWhXIipX80X9UXcpLej8AO6InFIBNTFTpoicTr3JnrEwqCysUmqEnSDV31dPFy/X2+b69lh361fZHVPHG9MSRTl+ZmnY2p3whkCZq7iulejAa1bc/maX5Wb0lj3lKCaDAKEAIBWBLnefqtKkoOfScV40nNtw7+DAybse1p57TZ1/W6NC13mORphqtWjNHc298Hz/Soc/qZmhR4YSBf0m2W6U3tushhuCBUYcQCsA+2n2JeYXvFbclDRNP1EzfRQWCQQWCQX31cCWh5654UO5i6acf9bRlWIEz0i+fzetz3iOaktX3vT1i1+bq9TLmgwKjDCEUgH0UeBNB86UzrkF7PHO9DTpceypl4RLuTObitb1t2f6BZk1Zq9X9AucVfXmt/3uT5XrbFAgGdfV6GT3VwChBCAVgS7neBr1/5k+6PFBhd0h/GJthuko2ladllVdUdbxDLYcvD9ALmqdZK8/p49ZvBnx3X7neUzpx/bRODBFaAdz/CKEA7KHbr8b/7H0ZaarRi8WPanK8bNexcKKss7FSb60qkdt4Je0p86nZ+lHlas0fNztlgVGP3KXblVc5v8+WTbHV8d/+dm/vVk2S1B3Q6SBfEIDRgC2aANhDtlORZ1xyOxySpLbpFbr8riexyvq7bc/IvXOMJClY1tBnpTaGJdujNc9X6nqxZ+BV7dkevfkbp+pdJXLviF2fqCyt8+/R32SFNc87Ve7WzN7jx6sGGNIHYDcZ0Wg0eq8/JBQKyel03uuPgWhr2A/3tDm0NeyGezq9MRwPAAAA4wihAAAAMI4QCgAAAOMIoQAAADCOEAoAAADjCKEAAAAwjhAKAAAA4wihAAAAMI4nJgFIe6FQaKSrMGrQ1gBMIYQCSHs88cQMni4Du+FLVXpjOB4AAADGEUIBAABgHCEUAAAAxhFCAQAAYBwhFAAAAMYRQgEAAGAcIRQAAADGEUIBAABgHCEUgA11qN7l0pLj3ySOdPpccluW3Jal8Rv96hrB2t3/wmrxluvQNUntvkHas0N1rvg5CqvFOzXR/tOsvQr0nNbuSxx3W1bKNQNgbzwxCYDtRJpqdMDhUE7iSId+++inCgSzFAtEc/Xy8ek6smDCyFXSLgpK9P4LNTpxzaPVWUnH25u1as1aRbNi7b1v3ikFfPH2bm/SoWuS+798mrY+Q1XBoNySpLCOfvy1JK4LMBrQEwrAXrr92nS2WNuXR5MO5ql0UU9Cmih3cdFI1Mym8jRr5Tl93JrcgxlWy+F6bSrKi78u0qLCpGBZsDgRWFvLZscDqCRNVOmiJ+95jQGkB0IoABsJq2XXaeVXlGrKD5FBzwmcUWoowrDkzlipY2c+7x2S7w6oObhCnnwpFvqlA56kIfgeBSWqqy1jCB4YpQihAGyj0zdH++ZtTR0Wjos0lcttWbKst3R5S/WA5+AOFTyvE9dP68S12MvIF6f11qqSRA9n5uJqXdgf1ca+80GVpxVtp/TKyTnMBwVGIUIoAHto92nSuIZB53lmLq5WIBhUMPiGJu+Yqoz9HYYraGex3s6fftShnp7mXz6bl3pKgVeBYFAX9kf1M2tDfMFS7L0zfRcVCH6sV07O4boAowghFIANxOYgWg1rEquslzY61LVj4QChZqJmVmzTa3/8Eyvk76LMp2brjcPNavvLFzo6pljzB+tpLvDq7KYf+swhlWJhtF6Ha0/1H7YHYEuEUAA20NObFkz8NC79q3K2HFN0fV5iNXaPzsZKVT32aNLqeQxbtlslVr0+3H1GV0t+krIzge/nl5JODCtw5rwkKdJUnXJd1N6s/Q7+WQJGC7ZoAmB/Dz2gy88Uyj12jCQpWNYQC6e4i2K7Dmx+O6p1FclTIvL00sPlclsXEkdytpyKT5uYozEul9wOhyTphpapKvhq0mp5AHaWEY1Go0OfNjyhUEhOp/NefwxEW8N+uKfNoa1hN9zT6Y1xDwAAABhHCAUAAIBxhFAAAAAYRwgFAACAcYRQAAAAGEcIBQAAgHGEUAAAABhHCAUAAIBxhFAAAAAYZ+yJSQAAAKbxxKT0ZezZ8dwEZvCIMtgN9zQA2BPD8QAAADCOEAoAAADjCKEAAAAwjhAKAAAA4wihAAAAMI4QCgAAAOMIoQAAADCOEAoAAADj0jiEdqje5dKS49/0L+r2a+uPC7X5kvla2UdYLd6pcltW4mf8Rr+6eorbfSlllrVBh67FiiJN5crY39HvN3b6XFwTAABwS9I2hEaaanTA4RiwrLOxUs1jxxiukR0Vaa0/qEAw9vPVw5V6OSn0B8tqE2XB/ZN0wLNXgRGsLQAAsI/0DKHdfm06W6ztywd4rH27T5PGvaldhRHz9bK53Bkr9R9XugYuLHhe7xSG9OU1s3UCAAD2lIYhNKyWXaeVX1GqKT/0DZodqnshqs/XTx+RmtlbWC2H67WpKG+kKwIAAEaBsSNdgb46fXO0b16zjmRJnSklYbV4V+j3dRe1UmG1jFD97OW8ajyWaiRFZWmd/6J2Zw18ZqRph+aPm63Lg5QDAADcjvQKoe0+TRrXoOiCCf2KIk07tG/eKR3JH4F62VaR1vqrtTortqho0kcdWr2+tyfUalgjd0Psv9umV+jyux7lSGIiBAAAGK40CqGx4WCrtTERfCSHpIXKuLJZdbXn1OVYKPeOnrJMqdXSki3HdGSA0Irbk+tt0GFXjQ49GwulUmxhUnR9/+H5zNzJcpwPqUt5ykkcDSsUmqEnnjNVYwAAcD9LoxA6UTN9F1NWX3f6XHrt8eZYz+j6Uq1IlITV4p2rk2suajc9o3dJnlb+YrLGv+3X/HiP56AKSnTwhTLtveRJtD/D9QAA4HakUQjFiCt4XicOz9VD+52KWjc7MU8rPtmurYsK5Y5vlXVDy3QmOER4BQAAiMuIRqMD7IN0d4VCITmdznv9MRBtDfvhngYAe0rDLZoAAABgd4RQAAAAGEcIBQAAgHGEUAAAABhHCAUAAIBxhFAAAAAYRwgFAACAcYRQAAAAGGfsiUmhUMjUR416tDUAAEh3xkIoTzwxg6fLwG74UgUA9sRwPAAAAIwjhAIAAMA4QigAAACMI4QCAADAOEIoAAAAjCOEAgAAwDhCKAAAAIwztk8o0lC7T+71jTc9pW16hS6/61FO/HWnz6X3itu0O79D9a4yHXA4BnxfzpZjOrJgQv+Cbr/+zRPSglav3IN+aofqXKf0eFt57JwB6vn0waB259+06gAAII0RQkezAq8CQe/g5d1+bXgnOkhhnpZWztDvnNXanS9Fmsq1bNxWHVkwQZ2+cp0uHCCASlK2Rzv9fm3YcFST95Qmwu1QgmW1iq7PkxQPwrf4PgAAkJ7SOITGetqadjan9KhFmso18+0Lkvr30uF23bw3U4q18etSUm+kQ2q0NH56hS6/W62XfOU6lFOt5+Lnd/pceu3xZh3JkqSwWrxzVdGaOeDvXmLtTnn90JYP9PLJZ2PnOyRZv1bb9AqFn88Y/p8KAADSStqG0EhTjQ44HCkBM9JULsef1yoarB6xetlLnla0tWnFYMXJPaHxXtOe4fjA9z65LStW1mipRpK0UEvlkLRQ1g5L6/x7tNp3UYE+vzbSVK7KeA9qPwsuKtB3yL7dN9w/FAAApJn0DKHdfm06W6zty7/QgcTBDh1qKdbXVXkjWDH76PS5tLRx8B7QZEus3YleZ0l66Ow+LXGWxYfyY/M3J7753/r46iPKqrsxxHzPW/B1SKfGZGjBcH4HAABIa2kYQsNq2XVa+VuqNeXDbb2H25v1z48/qineqVoSH95lccqdy/W2KdBvOmifBUF9tfvkbnQoWFas6IIJijSVq+htp6rayvWPTeU6NHm5DrR2qd7l0kaH4w6vT1gth+s1Rpn6mXUl1psq6Z8eYdIFAAB2knYhtNM3R/vmxeYUdiYdj3Re1lMNV3XZf1GBLMVXWfsUGG6v2yiWmN6wvrd3OUP18l8qlzu/95xl47bqyNTPtTYwW41L63SgKEct3qmqaM3UGF3QRutX8XcvlHuHJIdDwbJaBfJ1kxX4Vsp1u6Flqgq+Knd3QI1PrNaL579X/snH9cGuo/p2BXNCAQCwm/TaJ7Tdp0njGgbe2kfSF2UvaHVW/EW2WyVWvfyXzFXPbjIXV+vq9TKN3+hXV9LxqrrY656ezkWFGVK2RzX/8qQkKaoJmun7VLsKp2mtP6hAMKiWTdOUs+WYAsGgAvuX9v6yAm/sWNJPy6Zpevpg6rELwVflltTZWKmJM4olSd/93ULt2VOqcVdDxtoEAACYkUY9obFhWKu1Ue6GnmOxRS4ZV2oVtSZLfx7B6tlUrrdN/9dUrvd/fkWvPvCADmuF/n3mWS2xdsXmgQZvtvvAedV4ehYlSYmeUEkqK7mD2oT1+we26ZV86WTS0f+5ck5PFA+85+iGd6J6/Ta2egIAAOkhjXpCJ2qm72JK71jj0r8qZ8ux2HBxQYnqasu0uafns/0D/WvrSnmYEzpMHWrcfk6vX3lEXetnSZImLHpDuwojWlg8fYhwVzR0T+htmai5r5Tq75W0N2m3Xwc/HOQ6fx1S1WOPEkABALgPpVFP6FDytOKT7dq6qFDusWN65xCOdLXuW7E9PDe3Pq11n7bpuyxJ6oiXPaiZvoty+lyaZq26STvf7Z7Q/jobK/W7bc3aOUg5C5YAALg/pXUIzfW26UjygWyP3vyNR2+OVIVspGcBWNA3IbZ4yBNbPBRcU5voh8z1tumCt0P1LpemL39RW379C50cu0pViVX1RVrrr+6dp9uj3aeMoIZ4LKjVL9j2/WIx/i/HVH11m37uTR2Kz52xUmfXWbJkaZ1/kCczAQCAtJYRjUYHey7jXRMKheR0Ou/1x0C0NeyHexoA7CmN5oQCAABgtCCEAgAAwDhCKAAAAIwjhAIAAMA4QigAAACMI4QCAADAOEIoAAAAjDO2WX0oFDL1UaMebQ0AANKdsRDKZtNmsLE37IYvVQBgTwzHAwAAwDhCKAAAAIwjhAIAAMA4QigAAACMI4QCAADAuP8HM31dy2UbhhQAAAAASUVORK5CYII=;" vertex="1" parent="1">
          <mxGeometry x="400" y="-30" width="610" height="464.07" as="geometry" />
        </mxCell>
      </root>
    </mxGraphModel>
  </diagram>
</mxfile>
